<svg viewBox="0 0 582.83 1029.63" xmlns="http://www.w3.org/2000/svg" xmlns:xlink="http://www.w3.org/1999/xlink"><linearGradient id="a" gradientUnits="userSpaceOnUse" x1="0" x2="582.83" y1="514.82" y2="514.82"><stop offset=".13" stop-color="#a98158"/><stop offset=".89" stop-color="#8c6239"/></linearGradient><g fill="none"><path d="m332.59 648.82q11.97 0 11.97-11.96 0-11.74-11.35-11.74t-11.41 11.59v1.37q0 10.74 10.79 10.74z"/><path d="m366.98 46.09c-4.4-.37-8.85 0-13.27-.22-3.51-.18-4.69 1.35-4.39 4.59.1 1.06.01 2.13.01 3.2v558.13c0 1.52.08 3.05 0 4.57-.14 2.73 1.17 3.91 3.82 3.89 3.36-.03 6.72.02 10.08.02q7.02 0 7.03-7.01c0-93.48 0-186.96 0-280.44 0-93.02 0-186.04 0-279.06 0-1.52.41-3.22-.14-4.53-.54-1.3-1.97-3.04-3.14-3.14z"/><path d="m312.98 800.78c-3.81.13-7.65.29-11.43-.04-4.29-.37-5.48 1.31-5.44 5.45.17 20.26.08 40.52.08 60.78v60.32c0 6.1.02 6.1 5.91 6.11h7.78q7.04 0 7.06-6.9c0-39.6 0-79.21 0-118.81 0-1.07-.05-2.13-.03-3.2.06-2.7-1.21-3.8-3.93-3.7z"/><path d="m339.72 800.74c-4.26.28-8.57.31-12.82 0-4.06-.3-5.22 1.14-5.19 5.16.19 20.28.09 40.56.09 60.84 0 20.58.08 41.17-.07 61.75-.03 3.67.85 5.31 4.81 4.97 3.64-.31 7.32-.06 10.99-.07q7.03 0 7.03-6.83c0-33.7 0-67.39 0-101.09 0-6.56-.15-13.12.06-19.67.12-3.66-.96-5.32-4.9-5.06z"/><path d="m307.87 625.15c-11.69-.09-11.69-.02-11.68 11.76 0 2.58.13 5.17-.03 7.74-.2 3.13.98 4.38 4.2 4.22 4.25-.21 8.52-.17 12.77-.01 2.81.1 3.83-1.14 3.79-3.77-.05-3.64 0-7.29.01-10.93 0-10.75.3-8.94-9.06-9.01z"/><path d="m362.42 625.14q-13.09-.04-13.09 13.65 0 10.04 9.32 10.03 11.61 0 11.61-11.75c0-1.37.01-2.74 0-4.12-.09-8.77.94-7.8-7.84-7.83z"/><path d="m370.26 724.76c0-21.94-.07-43.88.07-65.82.02-3.62-1.09-4.9-4.69-4.61-3.33.27-6.71.05-10.07.06-6.22 0-6.23 0-6.24 6.24v128.89c0 .91.05 1.83.01 2.74-.12 2.51 1.13 3.64 3.56 3.65 3.97.01 7.94-.15 11.9.08 4.04.23 5.59-1.07 5.55-5.42-.21-21.94-.1-43.88-.1-65.82z"/><path d="m370.26 867.49c0-20.58-.08-41.17.07-61.75.03-3.69-.96-5.32-4.87-4.99-3.34.28-6.71.05-10.07.06-6.02.01-6.05.02-6.05 6.06v104.29c0 6.1.1 12.2-.03 18.3-.06 2.94 1.02 4.11 4.01 3.97 3.96-.18 7.96-.31 11.9.03 4.11.36 5.16-1.14 5.12-5.14-.19-20.28-.09-40.56-.09-60.84z"/><path d="m339.72 45.86c-4.41.28-8.87.26-13.28 0-3.63-.21-5.13 1.08-4.66 4.69.14 1.05.02 2.13.02 3.2v558.58c0 1.22.11 2.45-.02 3.66-.33 3.24 1.25 4.36 4.3 4.28 3.82-.1 7.64 0 11.45-.01q7.02-.01 7.03-7.1c0-93.33 0-186.65 0-279.98s0-185.43 0-278.15c0-1.37-.12-2.76.02-4.12.37-3.65-.92-5.32-4.86-5.06z"/><path d="m327.75 796.01c3.49-.28 7.01-.04 10.52-.06 6.25-.03 6.28-.04 6.28-6.46 0-40.98 0-81.97 0-122.95 0-2.89-.09-5.79 0-8.68.07-2.52-.98-3.55-3.53-3.49-4.73.11-9.48.29-14.18-.06-4.09-.3-5.17 1.12-5.13 5.13.19 21.79.09 43.57.09 65.36s.14 43.58-.11 65.36c-.05 4.78 1.61 6.2 6.06 5.85z"/><path d="m258.49 800.76c-2.42.25-4.88.04-7.32.04q-7.08 0-7.09 6.93v118.82c0 1.07.06 2.13.02 3.2-.09 2.71 1.15 3.82 3.89 3.67 2.89-.15 5.8-.03 8.69-.03q7.09 0 7.1-7.32c0-19.5 0-39 0-58.49 0-14.32 0-28.64 0-42.96 0-6.25-.18-12.5.06-18.73.15-4.04-1.39-5.53-5.35-5.13z"/><path d="m252.19 648.8c11.6.09 11.6.02 11.58-11.42 0-2.73-.05-5.47.01-8.2.06-2.78-.94-4.22-4-4.09-3.95.17-7.91.14-11.86 0-2.79-.1-3.84 1.17-3.82 3.79.03 3.95 0 7.9-.02 11.85-.02 9.82.08 8.01 8.11 8.07z"/><path d="m260.35 654.55c-3.46-.43-7.04.16-10.51-.23-4.86-.55-5.87 1.61-5.84 6 .17 21.49.08 42.99.08 64.48v3.66c0 20.73.07 41.47-.06 62.2-.02 3.93 1.29 5.65 5.31 5.33 2.58-.2 5.19-.03 7.78-.04 6.64-.02 6.67-.03 6.67-6.62 0-42.84 0-85.68 0-128.51 0-1.07.35-2.37-.14-3.15-.8-1.27-2.06-2.97-3.29-3.13z"/><path d="m239.22 867.09c0-19.82 0-39.65 0-59.47q0-6.81-7.03-6.81c-2.6 0-5.19 0-7.79 0q-7.8 0-7.81 7.6v117.56c0 1.07.07 2.14 0 3.2-.2 3.06 1 4.43 4.26 4.27 4.42-.22 8.87-.31 13.28.02 4.02.3 5.22-1.01 5.18-5.08-.2-20.43-.09-40.86-.09-61.3z"/><path d="m233.39 654.32c-3.47.35-7.01.06-10.52.07-6.24 0-6.27.01-6.27 6.31-.01 39 0 78.01 0 117.01 0 4.57.11 9.14-.02 13.71-.1 3.36 1.38 4.66 4.66 4.55 4.12-.13 8.25-.25 12.35.04 4.38.31 5.77-1.3 5.73-5.72-.2-21.79-.09-43.57-.09-65.36 0-21.64-.16-43.27.12-64.9.06-4.8-1.45-6.15-5.95-5.7z"/><path d="m274.6 796.01c3.49-.28 7.01-.04 10.52-.06 6.26-.03 6.28-.04 6.28-6.45 0-40.98 0-81.97 0-122.95 0-2.89-.08-5.79 0-8.68.07-2.51-.97-3.55-3.53-3.49-4.73.11-9.48.29-14.18-.06-4.08-.3-5.17 1.11-5.14 5.12.19 21.79.09 43.57.09 65.36s.14 43.58-.11 65.36c-.05 4.78 1.6 6.21 6.06 5.85z"/><path d="m291.41 851.71c0-15.4-.08-30.8.05-46.2.03-3.53-1.05-4.99-4.73-4.76-4.26.26-8.57.34-12.82-.02-4.35-.36-5.38 1.37-5.35 5.46.18 20.28.08 40.56.08 60.84 0 20.58.07 41.17-.07 61.75-.02 3.55.95 4.94 4.64 4.68 4.1-.29 8.27-.37 12.36.01 4.66.44 5.97-1.19 5.93-5.83-.22-25.31-.1-50.62-.1-75.93z"/><path d="m288.03 46.09c-3.93-.4-7.93-.19-11.9-.16-8.21.06-7.48-.8-7.48 7.27-.01 93.17 0 186.35 0 279.52v279.07c0 1.52.1 3.06-.01 4.57-.2 2.74 1.06 3.91 3.74 3.89 3.82-.03 7.64.02 11.45.02q7.58 0 7.58-7.46c0-186.5 0-373 0-559.5 0-1.37.4-2.95-.14-4.06-.64-1.31-2.03-3.03-3.23-3.15z"/><path d="m260.32 46.09c-3.61-.43-7.33.06-10.97-.23-4.01-.32-5.71 1.19-5.28 5.18.13 1.21.02 2.44.02 3.66 0 184.48-.01 368.96.03 553.44 0 13.96-1.89 11.97 12.13 12.11 7.54.07 7.55 0 7.55-7.56 0-93 0-186 0-279.01 0-93.15 0-186.31 0-279.46 0-1.68.4-3.53-.18-4.98-.53-1.33-2.04-3.01-3.28-3.16z"/><path d="m301.36 795.99c2.88-.22 5.8-.03 8.7-.04 6.85-.02 6.87-.02 6.87-6.87 0-42.53 0-85.06 0-127.6 0-1.22-.06-2.44-.04-3.66.04-2.48-1.07-3.56-3.63-3.47-3.81.13-7.66.29-11.44-.04-4.35-.38-5.79 1.06-5.74 5.55.21 21.8.1 43.6.1 65.4s.08 43.6-.07 65.4c-.03 3.95 1.23 5.62 5.25 5.32z"/><path d="m445.55 800.75c-3.49.29-7.01.06-10.52.06-6.73 0-6.75 0-6.75 6.82v119.3c0 1.22-.3 2.6.17 3.61.53 1.12 1.76 2.67 2.74 2.71 6.36.24 12.73.12 19.73.12v-6.26c0-26.21 0-52.41 0-78.62 0-14.17-.18-28.34.11-42.51.09-4.38-1.42-5.58-5.47-5.24z"/><path d="m516.55 800.81c-3.05 0-6.1 0-9.16 0-6.71 0-6.73 0-6.73 6.84v118.84c0 1.37-.3 2.89.19 4.07.47 1.12 1.77 2.65 2.75 2.69 6.36.24 12.73.12 19.71.12v-6.28c0-26.66 0-53.33 0-79.99 0-13.26 0-26.51 0-39.77q0-6.52-6.76-6.53z"/><path d="m523.3 659.85c0-1.63-.14-3.27-.23-5.47-5.61 0-10.9 0-16.2 0-6.17 0-6.2.01-6.2 6.39v128.52c0 .91.04 1.83.02 2.74-.07 2.66 1.19 3.92 3.87 3.9 4.27-.04 8.56-.21 12.82.07 4.42.3 6.07-.99 6.05-5.81-.19-43.45-.11-86.9-.12-130.35z"/><path d="m482.21 45.96c-6.47-.13-6.48-.03-6.48 6.32v280.44 279.52c0 1.37.1 2.75-.02 4.12-.24 2.73.95 3.94 3.67 3.89 3.05-.05 6.11.02 9.16.02q7.25 0 7.25-7.25c0-184.52 0-369.04-.02-553.56 0-4.23 1.27-10.23-.94-12.23-2.52-2.29-8.28-1.18-12.63-1.26z"/><path d="m529 616.8c.61 1.33 1.96 3.16 3.12 3.26 4.55.39 9.15.15 13.73.2 2.71.03 3.9-1.3 3.83-3.94-.03-1.22.02-2.44.02-3.66 0-186.31 0-372.62 0-558.93 0-1.37-.05-2.74-.02-4.12.05-2.69-1.2-3.82-3.92-3.72-3.51.13-7.02.02-10.53.03q-6.32 0-6.33 6.5v280.38 279.92c0 1.37-.4 2.93.12 4.07z"/><path d="m546.5 654.54c-5.61-.29-11.24-.14-17.62-.14v6.09 69.52c0 20.12.13 40.25-.1 60.37-.05 4.52 1.46 6.01 5.76 5.61 2.72-.25 5.49-.04 8.24-.05 6.89-.02 6.91-.02 6.91-6.84 0-42.69 0-85.37 0-128.06 0-1.22.34-2.64-.16-3.61-.63-1.21-1.94-2.85-3.02-2.9z"/><path d="m546.71 625.31c-5.15-.31-10.34-.22-15.51-.02-.78.03-2.15 1.36-2.17 2.12-.17 6.94-.1 13.89-.1 21.42 6.29 0 11.78.18 17.23-.14 1.21-.07 3.25-1.87 3.31-2.96.34-5.76.31-11.55.03-17.31-.06-1.12-1.76-3.03-2.79-3.1z"/><path d="m570.45 523.24c-3.47-.37-4.53 1.18-4.5 4.45.09 11.41 0 22.82-.02 34.23-.01 7.75 0 15.5 0 24.08 3.04 0 5.3-.12 7.54.03 2.54.17 3.6-.85 3.59-3.38-.01-18.41-.03-36.81.08-55.22.03-5.33-3.71-3.88-6.68-4.2z"/><path d="m495.72 804.12c-.89-1.22-2-3.02-3.18-3.14-3.77-.41-7.64.13-11.41-.24-4.57-.45-5.51 1.42-5.49 5.68.15 40.51.09 81.01.1 121.52 0 1.63.13 3.26.23 5.46 4.99 0 9.69-.29 14.34.08 4.46.36 5.6-1.22 5.58-5.6-.16-40.5-.1-81.01-.1-121.52 0-.76.29-1.74-.08-2.24z"/><path d="m545.83 800.78c-3.81.14-7.66.31-11.44-.05-4.43-.42-5.63 1.16-5.62 5.56.16 40.53.1 81.05.1 121.58v5.52h14.55c6.23 0 6.26 0 6.26-6.32 0-39.92 0-79.83 0-119.75 0-.91-.04-1.83-.02-2.74.07-2.63-1.05-3.89-3.83-3.79z"/><path d="m476.7 794.54c2.62 2.38 8.57 1.28 13.09 1.37 5.99.12 6.01 0 6.01-6.15 0-43.12 0-86.24 0-129.36 0-1.22.24-2.53-.14-3.63-.31-.91-1.35-2.21-2.1-2.23-5.74-.19-11.5-.1-17.82-.1v5.84c0 40.53-.02 81.06.02 121.59 0 4.38-1.33 10.59.95 12.67z"/><path d="m407.35 795.98c3.65-.17 7.34-.23 10.98.01 4.07.27 5.18-1.43 5.15-5.35-.16-21.79-.08-43.58-.08-65.36 0-22.09-.07-44.19.07-66.28.02-3.52-.92-5.06-4.62-4.67-2.57.27-5.18 0-7.78.06-8.48.18-8.47-1.8-8.47 8.24v125.24c0 1.07.08 2.14 0 3.2-.28 3.46 1.13 5.08 4.75 4.91z"/><path d="m422.43 802.13c-2.59-2.37-8.56-1.2-13.07-1.29-6.74-.13-6.76-.03-6.76 6.79v118.93c0 1.07.06 2.14.03 3.2-.09 2.73 1.19 3.77 3.91 3.66 3.96-.15 7.96-.32 11.9.04 4.23.39 5.07-1.36 5.03-5.22-.17-20.28-.08-40.56-.08-60.84 0-17.53.03-35.07-.02-52.6-.01-4.39 1.34-10.59-.95-12.68z"/><path d="m397.75 867.56c0-20.28 0-40.56 0-60.84 0-5.9-.02-5.9-6.11-5.91-2.29 0-4.58-.04-6.87 0-10.26.2-9.64-1.84-9.64 9.42-.02 33.7 0 67.39 0 101.09 0 5.95.09 11.89-.01 17.84-.05 3.05 1 4.44 4.27 4.28 4.42-.22 8.87-.3 13.28.02 4 .3 5.23-.99 5.19-5.07-.2-20.28-.09-40.56-.09-60.84z"/><path d="m393.18 654.32c-3.79.29-7.62.06-11.44.06-6.59 0-6.61 0-6.62 6.43v128.44c0 .76.05 1.53 0 2.28-.18 3.05 1.14 4.51 4.3 4.42 3.96-.1 7.93 0 11.9-.01q6.41-.02 6.43-6.23c0-21.48 0-42.97 0-64.45 0-22.09-.07-44.18.07-66.28.02-3.55-.96-4.95-4.64-4.67z"/><path d="m469.89 654.67h-13.05c-.13.96-.32 1.69-.32 2.41-.02 44.97 0 89.95-.07 134.92 0 2.69.89 4.01 3.65 3.93 1.68-.05 3.37-.13 5.03.05 4.08.43 5.11-1.39 5.1-5.31-.12-43.75-.08-87.51-.09-131.26 0-1.6-.17-3.19-.26-4.73z"/><path d="m386.03 648.82q11.71 0 11.7-11.65c0-2.9.31-5.84-.14-8.66-.2-1.25-1.89-3.14-3.01-3.22-5.32-.34-10.69-.35-16.01 0-1.19.08-3.05 1.9-3.24 3.13-.48 3.13-.21 6.38-.21 9.58q0 10.83 10.91 10.83z"/><path d="m211.72 725.19c0-21.94-.1-43.88.09-65.82.04-4.1-1.21-5.44-5.2-5.05-3.02.3-6.1.06-9.15.06-6.51 0-6.54 0-6.54 6.5v128.44c0 .91.05 1.83.02 2.74-.08 2.68 1.23 3.89 3.89 3.86 3.81-.04 7.64-.17 11.44.06 4.06.24 5.58-1.1 5.54-5.44-.21-21.79-.1-43.58-.1-65.36z"/><path d="m495.64 628.43c-.06-1.15-1.91-3.05-3.04-3.14-4.68-.36-9.41-.27-14.11-.04-.93.04-2.56 1.38-2.59 2.16-.2 6.93-.12 13.87-.12 21.4 6.11 0 11.42-.06 16.72.03 2.26.04 3.34-.71 3.31-3.12-.09-5.76.14-11.54-.17-17.29z"/><path d="m461.53 800.73c-4.04-.16-5.15 1.08-5.14 5.12.15 40.84.09 81.68.1 122.51 0 1.6.17 3.19.26 4.76h13.4v-6.51c0-39.16.04-78.32-.03-117.48-.02-9.49 1.55-8.01-8.6-8.4z"/><path d="m205.25 620.27q6.47-.03 6.48-6.65c0-93.63 0-187.27 0-280.9 0-91.65 0-183.3 0-274.95 0-11.84 0-11.91-12.08-11.82-8.8.06-8.72-1.69-8.72 8.51v551.73q0 14.15 14.32 14.08z"/><path d="m76.21 625.29c-5.46-.34-10.96-.27-16.43-.02-.97.04-2.65 1.62-2.68 2.53-.23 6.79-.12 13.6-.12 21 7.04 0 13.28.14 19.49-.14 1.06-.05 2.87-1.84 2.92-2.9.29-5.76.32-11.55 0-17.31-.07-1.16-2.01-3.09-3.18-3.16z"/><path d="m228.41 625.12q-11.82 0-11.82 12.28 0 11.42 11.24 11.42t11.39-11.52c0-.46 0-.91 0-1.37q0-10.81-10.81-10.81z"/><path d="m296.18 607.03q0 13.26 13.24 13.24 7.5 0 7.51-7.6c0-93 0-186 0-279.01v-274.89c0-12.85 0-12.88-12.64-12.84-8.68.03-8.11-1.08-8.11 8.11v552.98z"/><path d="m287.09 625.08c-4.88.17-9.77.13-14.65.01-2.69-.07-3.95.85-3.82 3.68.14 3.04.03 6.09.03 9.14q0 10.91 11.08 10.91 11.68 0 11.67-11.79c0-2.59-.13-5.19.03-7.77.2-3.22-1.23-4.29-4.34-4.18z"/><path d="m114.19 620.26c3.66-.06 7.33 0 11 0q7.55 0 7.56-7.56c0-186.35 0-372.7 0-559.06 0-1.07-.07-2.14 0-3.2.22-3.22-.99-4.79-4.49-4.58-3.8.23-7.63.05-11.45.05q-6.68 0-6.69 6.7v280.44 278.61c0 1.52.11 3.06-.02 4.57-.26 3.06 1.3 4.06 4.09 4.02z"/><path d="m95.95 625.15c-11.49-.1-11.49-.02-11.48 11.48 0 2.9.09 5.8-.03 8.69-.1 2.47.75 3.62 3.39 3.54 4.58-.14 9.16-.12 13.74 0 2.54.07 3.66-.96 3.64-3.45-.02-3.66.04-7.32.03-10.97-.02-11.04.52-9.2-9.3-9.28z"/><path d="m375.12 53.66v559.05c0 1.22.05 2.44.02 3.66-.07 2.67 1.21 3.91 3.89 3.88 3.97-.04 7.94.02 11.91.01q6.8-.01 6.81-6.78c0-93.48 0-186.96 0-280.44 0-93.02 0-186.04 0-279.07 0-1.52-.09-3.05 0-4.57.15-2.54-.95-3.55-3.5-3.5-4.88.1-9.78.19-14.66-.04-3.5-.16-4.69 1.38-4.48 4.59.07 1.06 0 2.13 0 3.2z"/><path d="m60.94 620.27c4.73-.08 9.47-.09 14.2.01 3.03.06 4.63-1.09 4.45-4.28-.08-1.37 0-2.74 0-4.12 0-186 0-372.01 0-558.01 0-1.07-.08-2.14 0-3.2.27-3.44-1.02-5.06-4.73-4.81-3.8.25-7.63.05-11.45.05q-6.47 0-6.48 6.36v280.38 279.46c0 1.37.12 2.76-.02 4.11-.31 3.05 1.17 4.08 4.01 4.03z"/><path d="m88.53 620.27c3.66-.06 7.35-.22 10.99.06 4.4.33 6.28-1.41 5.75-5.78-.09-.75-.01-1.52-.01-2.29 0-186.2 0-372.39 0-558.59 0-1.07-.07-2.14 0-3.2.21-3.21-.98-4.83-4.48-4.58-3.19.22-6.41.04-9.62.04q-6.69 0-6.7 6.69v280.44 279.07c0 1.37.11 2.75-.01 4.12-.27 3.05 1.28 4.07 4.08 4.03z"/><path d="m122.22 625.15c-12.11-.12-12.11-.03-12.11 12.23q0 11.44 11.46 11.44 11.17 0 11.17-11.49c0-.61 0-1.22 0-1.83-.1-12.44 1.05-10.23-10.52-10.35z"/><path d="m221.28 620.29c3.81-.13 7.63-.01 11.45-.03q6.47-.02 6.48-6.65c0-93.63 0-187.26 0-280.9 0-92.87 0-185.74 0-278.61 0-1.37-.12-2.76.02-4.11.35-3.3-1.23-4.28-4.3-4.11-3.2.18-6.41-.01-9.62.04-8.73.15-8.73-1.72-8.73 8.53v557.22c0 1.37.09 2.75 0 4.12-.23 3.41 1.46 4.61 4.7 4.5z"/><path d="m468.34 625.33c-3.33-.21-6.69-.21-10.03 0-.63.04-1.68 1.37-1.7 2.12-.13 6.94-.08 13.88-.08 21.1h13.58c0-7.21.05-14.15-.08-21.09-.01-.75-1.06-2.08-1.7-2.12z"/><path d="m520.12 625.25c-5.32-.23-10.66-.3-15.97.04-1.2.08-3.2 1.94-3.27 3.07-.34 5.76-.28 11.55-.04 17.31.04 1.07 1.52 2.94 2.4 2.98 6.49.25 12.99.14 20.03.14 0-7.45.1-14.4-.14-21.33-.03-.8-1.93-2.16-3-2.2z"/><path d="m456.56 617.21c.14.93.78 2.5 1.28 2.53 3.62.22 7.37.59 10.84-.17.92-.2 1.42-4.17 1.42-6.41.06-186.77.06-373.53.06-560.3 0-1.37.09-2.76-.06-4.11-.09-.84-.51-2.35-.85-2.37-3.79-.22-7.64-.56-11.33.02-.77.12-1.37 3.86-1.37 5.94-.07 93.61-.06 187.22-.06 280.83v279.46c0 1.52-.14 3.07.08 4.57z"/><path d="m500.66 53.8v558.47c0 1.37.05 2.74.02 4.12-.06 2.68 1.23 3.9 3.9 3.87 3.97-.04 7.94.02 11.91.01q6.81 0 6.82-6.69c0-93.46 0-186.92 0-280.38 0-93.31 0-186.61 0-279.92 0-1.37-.09-2.75 0-4.12.16-2.34-.83-3.3-3.2-3.25-4.73.09-9.48.24-14.2-.06-4.02-.25-5.71 1.22-5.27 5.2.1.9.01 1.83.01 2.74z"/><path d="m402.63 616.37c-.07 2.67 1.2 3.92 3.88 3.88 3.36-.04 6.72.02 10.08.01q6.81-.01 6.82-6.76c0-93.48 0-186.96 0-280.44v-274.5q0-12.64-12.65-12.64-8.14 0-8.15 8.19v558.14c0 1.37.05 2.75.02 4.12z"/><path d="m430.88 648.65c6.49.25 12.99.14 19.98.14 0-7.49.09-14.44-.12-21.38-.02-.78-1.67-2.12-2.6-2.16-5.47-.21-10.97-.29-16.43.04-1.19.07-3.17 1.96-3.24 3.11-.33 5.76-.28 11.55-.04 17.31.04 1.06 1.55 2.91 2.43 2.94z"/><path d="m419.51 625.09c-4.27.17-8.55.17-12.82 0-3.02-.12-4.12 1.22-4.07 4.05.06 3.5-.02 7.01 0 10.52.04 11.08-.59 9.04 9.37 9.14 11.43.12 11.43.03 11.42-11.45 0-2.74-.12-5.49.03-8.23.17-2.91-.9-4.16-3.93-4.04z"/><path d="m428.27 53.78v558.02c0 1.52.05 3.05.02 4.57-.06 2.67 1.2 3.91 3.88 3.89 3.97-.04 7.94.02 11.91.01q6.83-.01 6.84-6.67c0-93.46 0-186.92 0-280.38 0-93.16 0-186.31 0-279.47 0-1.37-.11-2.75.02-4.11.25-2.74-.84-3.84-3.65-3.75-4.73.15-9.47.22-14.2-.02-3.59-.18-5.12 1.16-4.82 4.71.09 1.06 0 2.13 0 3.2z"/><path d="m433.02 795.98c3.96-.17 7.94-.02 11.91-.04q5.97-.03 5.98-6.15c0-43.14 0-86.29 0-129.43v-5.56c-1.3-.22-1.75-.35-2.2-.36-4.58-.03-9.16-.05-13.74-.05q-6.69 0-6.71 6.8v127.6c0 .76.06 1.53 0 2.29-.3 3.47 1.15 5.06 4.76 4.91z"/><path d="m48.62 654.54c-5.47-.33-10.97-.14-17.33-.14v5.48 33.39c0 32.47.06 64.95-.08 97.42-.02 3.94 1.06 5.63 5.12 5.31 3.03-.24 6.1-.03 9.16-.04 6.59-.02 6.61-.03 6.61-6.67 0-42.84 0-85.68 0-128.52 0-1.07.35-2.38-.14-3.14-.82-1.26-2.14-3-3.34-3.08z"/><path d="m174.72 648.82q11.35 0 11.35-11.55v-1.37q0-10.78-10.84-10.78-11.91 0-11.91 12.1 0 11.6 11.41 11.6z"/><path d="m149.62 625.14c-12.01-.07-12.01-.02-12.01 11.88 0 1.52-.01 3.05 0 4.57.09 8.27-.79 7.2 7.43 7.2 4.23 0 10.53 1.23 12.18-.93 2.28-2.97 1.26-8.62 1.27-13.13.02-10.97 1.2-9.53-8.87-9.59z"/><path d="m47.62 800.76c-3.49.23-7.04.32-10.52-.02-4.51-.44-5.95.94-5.93 5.73.21 40.53.12 81.05.12 121.58v5.35h14.26c6.53 0 6.55 0 6.55-6.49 0-39.92 0-79.84 0-119.75 0-.61-.05-1.22 0-1.83.23-3.22-1-4.79-4.48-4.56z"/><path d="m158.53 725.28c0-5.79 0-11.58 0-17.37 0-16.3-.08-32.6.06-48.91.03-3.56-1.08-4.96-4.73-4.68-3.49.28-7.05.37-10.51-.02-4.69-.53-5.87 1.19-5.85 5.8.2 32.91.11 65.82.11 98.73 0 10.51.21 21.03-.1 31.53-.13 4.55 1.54 5.97 5.81 5.63 3.18-.25 6.42-.26 9.6 0 4.46.37 5.73-1.5 5.69-5.82-.18-21.63-.08-43.27-.08-64.9z"/><path d="m158.52 804.3c.1-2.52-1.06-3.57-3.58-3.5-3.66.09-7.33 0-10.99.01q-6.33 0-6.34 6.13v59.92 19.21c0 14.33.1 28.67-.06 43-.04 3.44 1.09 4.61 4.47 4.37 3.49-.25 7.02-.05 10.53-.05 5.96 0 5.98-.01 5.98-6.04 0-39.64 0-79.29 0-118.93 0-1.37-.07-2.75-.01-4.12z"/><path d="m168.64 796.01c4.1-.27 8.25-.25 12.35 0 4.06.24 5.18-1.42 5.15-5.35-.16-21.79-.08-43.57-.08-65.36 0-22.09-.07-44.18.07-66.28.02-3.51-.9-4.95-4.61-4.7-4.4.3-8.86.28-13.27 0-3.75-.23-5.07 1.02-5.02 4.86.19 12.95.07 25.9.07 38.85 0 30.78.06 61.55-.07 92.33-.02 4.08 1.09 5.92 5.41 5.64z"/><path d="m186.07 867.09c0-19.97 0-39.95 0-59.92q0-6.35-6.57-6.36c-3.36 0-6.72 0-10.08 0-6.08.01-6.1.02-6.1 6.01v120.76c0 .61.06 1.22 0 1.83-.26 2.88.89 4.15 3.93 4.03 4.57-.18 9.18-.3 13.74.03 4.02.29 5.22-1.02 5.18-5.09-.2-20.43-.09-40.86-.09-61.29z"/><path d="m200.31 648.8c11.41.11 11.41.03 11.41-11.46 0-1.37.01-2.74 0-4.12-.1-9.09 1.01-8.05-8.04-8.08-12.76-.05-12.79-.01-12.75 14.07.03 11.52-.76 9.48 9.38 9.59z"/><path d="m182.79 46.09c-5.02-.35-10.08 0-15.11-.22-3.51-.16-4.68 1.36-4.39 4.6.1 1.06 0 2.13 0 3.2v558.59c0 1.37.08 2.75 0 4.12-.15 2.74 1.17 3.89 3.82 3.88 3.97-.03 7.94.02 11.91.02q7.02 0 7.03-7.01c0-93.48 0-186.96 0-280.44 0-93.02 0-186.04 0-279.06 0-1.52.41-3.22-.14-4.53-.55-1.3-1.99-3.06-3.14-3.14z"/><path d="m137.61 53.31v559.5c0 1.22.09 2.45 0 3.66-.23 2.83 1.24 3.81 3.84 3.78 3.36-.03 6.72.02 10.08.02q7.01 0 7.02-7.11c0-93.48 0-186.96 0-280.44 0-92.87 0-185.74 0-278.61 0-1.22-.09-2.45.01-3.66.29-3.25-.91-4.79-4.41-4.58-3.8.22-7.65.3-11.45-.02-4.07-.34-5.7 1.16-5.1 5.17.11.75.01 1.52.01 2.29z"/><path d="m48.98 648.67c1.07-.06 2.87-1.84 2.93-2.9.29-5.76.32-11.55 0-17.31-.07-1.16-2-3.08-3.18-3.16-4.84-.36-9.74-.29-14.59-.02-.98.05-2.65 1.62-2.68 2.53-.23 6.79-.12 13.59-.12 21 6.43 0 12.06.16 17.66-.14z"/><path d="m75.71 800.78c-4.42.13-8.87.32-13.27-.05-4.47-.38-5.6 1.23-5.59 5.6.16 40.53.1 81.05.1 121.58v5.49h16.41c6.2 0 6.23 0 6.23-6.35 0-39.92 0-79.84 0-119.75 0-.91-.05-1.83-.02-2.74.07-2.65-1.1-3.85-3.86-3.76z"/><path d="m52.1 53.79c0-1.37-.05-2.74-.02-4.12.05-2.65-1.1-3.88-3.87-3.77-3.51.14-7.02.02-10.53.03q-6.38 0-6.39 6.45v280.38 279.92c0 1.37-.4 2.93.12 4.07.6 1.34 1.93 3.22 3.07 3.31 4.7.38 9.47.39 14.17.01 1.21-.1 2.68-1.92 3.29-3.28.57-1.28.17-3 .17-4.52 0-186.16 0-372.32 0-558.48z"/><path d="m211.72 867.5c0-20.74-.05-41.47.06-62.21.02-3.28-.89-4.78-4.39-4.53-3.19.23-6.41.04-9.62.05-6.82 0-6.84 0-6.84 6.74v109.78c0 4.12.06 8.23.01 12.35-.03 2.66 1.04 3.86 3.84 3.75 3.96-.16 7.96-.31 11.9.04 4.1.36 5.17-1.12 5.13-5.13-.19-20.28-.09-40.56-.09-60.84z"/><path d="m76.11 654.54c-6.08-.31-12.19-.14-19.17-.14v5.47 32.47c0 32.78.06 65.56-.08 98.33-.02 3.93 1.04 5.6 5.12 5.32 3.65-.25 7.33-.04 10.99-.05 6.59-.02 6.61-.03 6.62-6.67 0-42.84 0-85.68 0-128.52 0-1.07.35-2.38-.14-3.14-.82-1.26-2.15-3.01-3.33-3.08z"/><path d="m101.81 654.55c-4.08-.39-8.25.12-12.34-.23-4.12-.35-5.14 1.18-5.1 5.15.18 21.79.09 43.57.09 65.36 0 22.09.06 44.18-.06 66.28-.02 3.52 1.06 5.07 4.67 4.88 3.2-.17 6.41-.02 9.61-.03 6.55-.02 6.57-.03 6.57-6.71 0-42.81 0-85.63 0-128.44 0-1.07.35-2.37-.14-3.14-.8-1.27-2.08-3-3.3-3.11z"/><path d="m128.24 800.75c-4.26.23-8.57.32-12.82-.02-4.27-.34-5.43 1.24-5.39 5.41.19 20.28.09 40.56.09 60.84 0 20.58.04 41.17-.04 61.75-.01 3 .28 5 4.11 4.72 3.95-.29 7.94-.06 11.91-.06 6.63 0 6.65 0 6.65-6.86 0-39.64 0-79.29 0-118.93 0-.76-.06-1.53 0-2.29.23-3.24-1.03-4.74-4.5-4.56z"/><path d="m132.74 725.22c0-1.83 0-3.66 0-5.49 0-19.96-.07-39.92.06-59.88.02-3.93-.85-5.98-5.35-5.55-4.08.39-8.26.36-12.35 0-4.17-.36-5.1 1.26-5.07 5.18.16 24.22.08 48.45.08 72.68 0 19.66.07 39.31-.06 58.96-.02 3.55 1.13 5 4.71 4.85 4.11-.17 8.25-.26 12.35.03 4.52.32 5.73-1.63 5.7-5.88-.15-21.63-.07-43.27-.07-64.91z"/><path d="m101.56 800.79c-3.51.11-7.02.02-10.54.02q-6.56 0-6.57 6.36v60.38c0 20.43.08 40.87-.07 61.3-.03 3.64 1.12 4.9 4.71 4.6 3.18-.27 6.41-.05 9.62-.05 6.52 0 6.54 0 6.54-6.51 0-39.8 0-79.6 0-119.39 0-1.07-.05-2.13-.04-3.2.02-2.47-1.11-3.58-3.65-3.5z"/></g><path d="m0 0v1029.63h582.51v-664.58h.32v-365.05zm505.92 45.86c4.72.3 9.46.15 14.2.06 2.37-.05 3.36.91 3.2 3.25-.09 1.37 0 2.74 0 4.12v279.92 280.38q0 6.68-6.82 6.69c-3.97 0-7.94-.05-11.91-.01-2.66.03-3.96-1.19-3.9-3.87.03-1.37-.02-2.74-.02-4.12 0-186.16 0-372.31 0-558.47 0-.91.09-1.84-.01-2.74-.44-3.98 1.25-5.45 5.27-5.2zm17.34 602.93c-7.03 0-13.54.12-20.03-.14-.87-.03-2.35-1.91-2.4-2.98-.24-5.77-.29-11.56.04-17.31.07-1.13 2.07-2.99 3.27-3.07 5.31-.34 10.65-.27 15.97-.04 1.08.05 2.97 1.4 3 2.2.24 6.93.14 13.88.14 21.33zm-66.77-315.6c0-93.61 0-187.22.06-280.83 0-2.07.61-5.82 1.37-5.94 3.7-.58 7.55-.24 11.33-.02.34.02.76 1.52.85 2.37.15 1.36.06 2.74.06 4.11 0 186.77 0 373.53-.06 560.3 0 2.24-.5 6.21-1.42 6.41-3.47.76-7.21.39-10.84.17-.5-.03-1.14-1.61-1.28-2.53-.22-1.49-.08-3.04-.08-4.57 0-93.15 0-186.31 0-279.46zm13.62 315.36h-13.58c0-7.21-.05-14.16.08-21.1.01-.75 1.06-2.08 1.7-2.12 3.33-.21 6.69-.21 10.03 0 .63.04 1.68 1.37 1.7 2.12.13 6.94.08 13.88.08 21.09zm-37.03-602.68c4.72.24 9.47.18 14.2.02 2.81-.09 3.91 1 3.65 3.75-.13 1.36-.02 2.74-.02 4.11v279.47 280.38q0 6.65-6.84 6.67c-3.97 0-7.94-.05-11.91-.01-2.68.03-3.94-1.22-3.88-3.89.04-1.52-.02-3.05-.02-4.57 0-186.01 0-372.01 0-558.02 0-1.07.08-2.14 0-3.2-.3-3.55 1.23-4.89 4.82-4.71zm-4.82 745.21c.06-.76 0-1.52 0-2.29 0-42.53 0-85.07 0-127.6q0-6.8 6.71-6.8c4.58 0 9.16.02 13.74.05.45 0 .89.14 2.2.36v5.56 129.43q0 6.11-5.98 6.15c-3.97.02-7.95-.13-11.91.04-3.61.16-5.06-1.43-4.76-4.91zm.22-162.68c.07-1.14 2.05-3.03 3.24-3.11 5.46-.33 10.96-.25 16.43-.04.93.04 2.58 1.38 2.6 2.16.2 6.94.12 13.89.12 21.38-7 0-13.5.12-19.98-.14-.89-.03-2.39-1.88-2.43-2.94-.24-5.77-.3-11.56.04-17.31zm-5.08 8.96c0 11.47 0 11.56-11.42 11.45-9.96-.1-9.32 1.93-9.37-9.14-.01-3.51.06-7.01 0-10.52-.05-2.84 1.05-4.17 4.07-4.05 4.27.17 8.55.17 12.82 0 3.03-.12 4.1 1.13 3.93 4.04-.16 2.73-.03 5.48-.03 8.23zm-12.64-591.43q12.65 0 12.65 12.64v274.5 280.44q0 6.74-6.82 6.76c-3.36 0-6.72-.05-10.08-.01-2.68.03-3.95-1.21-3.88-3.88.03-1.37-.02-2.74-.02-4.12 0-186.05 0-372.1 0-558.14q0-8.19 8.15-8.19zm-31.16-.05c4.88.23 9.77.14 14.66.04 2.54-.05 3.65.96 3.5 3.5-.09 1.52 0 3.05 0 4.57v279.07 280.44q0 6.76-6.81 6.78c-3.97 0-7.94-.05-11.91-.01-2.67.03-3.95-1.21-3.89-3.88.03-1.22-.02-2.44-.02-3.66 0-186.35 0-372.7 0-559.05 0-1.07.07-2.14 0-3.2-.21-3.21.98-4.75 4.48-4.59zm-75.3.06c12.64-.05 12.64-.01 12.64 12.84v274.89 279.01q0 7.59-7.51 7.6-13.24.02-13.24-13.24c0-184.33 0-368.65 0-552.98 0-9.19-.57-8.08 8.11-8.11zm-12.9 591.1q0 11.79-11.67 11.79-11.08 0-11.08-10.91c0-3.05.12-6.1-.03-9.14-.13-2.83 1.13-3.74 3.82-3.68 4.88.12 9.77.16 14.65-.01 3.11-.11 4.54.96 4.34 4.18-.16 2.58-.03 5.18-.03 7.77zm-74.81-25.36c0-185.74 0-371.48 0-557.22 0-10.24 0-8.38 8.73-8.53 3.21-.06 6.42.13 9.62-.04 3.07-.17 4.65.81 4.3 4.11-.14 1.36-.02 2.74-.02 4.11v278.61 280.9q0 6.62-6.48 6.65c-3.82.01-7.64-.11-11.45.03-3.24.11-4.93-1.09-4.7-4.5.09-1.37 0-2.74 0-4.12zm22.63 24.26v1.37q0 11.52-11.39 11.52t-11.24-11.42q0-12.28 11.82-12.28 10.81 0 10.81 10.81zm-129.12-19.69c.13-1.51.02-3.05.02-4.57 0-92.87 0-185.74 0-278.61 0-93.48 0-186.96 0-280.44q0-6.69 6.69-6.7c3.82 0 7.65.18 11.45-.05 3.49-.21 4.7 1.35 4.49 4.58-.07 1.06 0 2.13 0 3.2v559.06q0 7.55-7.56 7.56c-3.67 0-7.33-.06-11 0-2.8.05-4.35-.96-4.09-4.02zm22.64 19.26v1.83q0 11.49-11.17 11.49-11.46 0-11.46-11.44c0-12.26 0-12.35 12.11-12.23 11.57.12 10.42-2.09 10.52 10.35zm-48.3-19.27c.12-1.36.01-2.74.01-4.12 0-93.02 0-186.04 0-279.07 0-93.48 0-186.96 0-280.44q0-6.69 6.7-6.69c3.21 0 6.43.18 9.62-.04 3.5-.24 4.69 1.37 4.48 4.58-.07 1.06 0 2.13 0 3.2v558.59c0 .76-.08 1.53.01 2.29.53 4.37-1.34 6.11-5.75 5.78-3.65-.27-7.33-.12-10.99-.06-2.8.05-4.35-.98-4.08-4.03zm20.81 18.19c0 3.66-.06 7.32-.03 10.97.02 2.49-1.1 3.52-3.64 3.45-4.58-.12-9.16-.14-13.74 0-2.65.08-3.49-1.07-3.39-3.54.12-2.89.03-5.79.03-8.69-.01-11.5-.01-11.58 11.48-11.48 9.83.08 9.29-1.76 9.3 9.28zm-48.32-18.19c.14-1.36.02-2.74.02-4.11 0-93.15 0-186.31 0-279.46 0-93.46 0-186.92 0-280.38q0-6.35 6.48-6.36c3.82 0 7.65.2 11.45-.05 3.7-.25 5 1.37 4.73 4.81-.08 1.06 0 2.13 0 3.2v558.01c0 1.37-.08 2.75 0 4.12.18 3.19-1.42 4.34-4.45 4.28-4.73-.1-9.47-.09-14.2-.01-2.84.05-4.32-.99-4.01-4.03zm22.46 29.52c-.05 1.06-1.86 2.86-2.92 2.9-6.22.28-12.45.14-19.49.14 0-7.41-.1-14.21.12-21 .03-.91 1.71-2.49 2.68-2.53 5.47-.25 10.97-.31 16.43.02 1.17.07 3.11 2 3.18 3.16.33 5.76.3 11.55 0 17.31zm-27.29 161.38v119.75c0 6.48-.03 6.49-6.55 6.49-4.54 0-9.08 0-14.26 0v-5.35c0-40.53.09-81.05-.12-121.58-.02-4.79 1.42-6.17 5.93-5.73 3.48.34 7.02.25 10.52.02 3.49-.23 4.72 1.34 4.48 4.56-.04.61 0 1.22 0 1.83zm0-146.39v128.52c0 6.64-.02 6.65-6.61 6.67-3.05.01-6.12-.19-9.16.04-4.07.32-5.14-1.37-5.12-5.31.14-32.47.08-64.95.08-97.42 0-11.13 0-22.26 0-33.39 0-1.64 0-3.27 0-5.48 6.36 0 11.86-.18 17.33.14 1.2.07 2.52 1.81 3.34 3.08.49.76.14 2.08.14 3.14zm-20.66-32.96c.03-.91 1.7-2.48 2.68-2.53 4.86-.27 9.75-.34 14.59.02 1.18.09 3.12 2 3.18 3.16.33 5.76.3 11.55 0 17.31-.05 1.06-1.86 2.85-2.93 2.9-5.6.29-11.23.14-17.66.14 0-7.41-.1-14.21.12-21zm20.5-11.02c-.61 1.36-2.07 3.19-3.29 3.28-4.7.38-9.47.36-14.17-.01-1.14-.09-2.47-1.97-3.07-3.31-.51-1.14-.12-2.7-.12-4.07 0-93.31 0-186.62 0-279.92 0-93.46 0-186.92 0-280.38q0-6.44 6.39-6.45c3.51 0 7.03.11 10.53-.03 2.77-.11 3.92 1.12 3.87 3.77-.03 1.37.02 2.74.02 4.12v558.48c0 1.52.4 3.24-.17 4.52zm27.65 310.26c0 6.34-.03 6.35-6.23 6.35-5.18 0-10.36 0-16.41 0v-5.49c0-40.53.07-81.06-.1-121.58-.02-4.37 1.12-5.98 5.59-5.6 4.39.37 8.85.19 13.27.05 2.76-.08 3.93 1.11 3.86 3.76-.02.91.02 1.83.02 2.74v119.75zm0-266.28v128.52c0 6.64-.03 6.65-6.62 6.67-3.66.01-7.34-.2-10.99.05-4.07.28-5.13-1.39-5.12-5.32.14-32.78.08-65.56.08-98.33 0-10.82 0-21.65 0-32.47 0-1.63 0-3.26 0-5.47 6.98 0 13.08-.17 19.17.14 1.19.06 2.52 1.81 3.33 3.08.49.76.14 2.08.14 3.14zm25.66 266.12c0 6.5-.02 6.51-6.54 6.51-3.21 0-6.43-.21-9.62.05-3.59.3-4.73-.96-4.71-4.6.15-20.43.07-40.86.07-61.3 0-20.13 0-40.26 0-60.38q0-6.35 6.57-6.36c3.51 0 7.03.09 10.54-.02 2.54-.08 3.67 1.03 3.65 3.5 0 1.07.04 2.13.04 3.2v119.39zm0-266.08v128.44c0 6.68-.02 6.68-6.57 6.71-3.2.01-6.42-.14-9.61.03-3.61.19-4.69-1.37-4.67-4.88.12-22.09.06-44.18.06-66.28 0-21.79.09-43.58-.09-65.36-.03-3.97.98-5.5 5.1-5.15 4.09.35 8.26-.16 12.34.23 1.21.12 2.49 1.84 3.3 3.11.49.77.14 2.08.14 3.14zm27.49 146.8v118.93c0 6.85-.02 6.86-6.65 6.86-3.97 0-7.96-.23-11.91.06-3.83.29-4.12-1.72-4.11-4.72.08-20.58.04-41.17.04-61.75 0-20.28.1-40.56-.09-60.84-.04-4.17 1.12-5.75 5.39-5.41 4.25.34 8.55.25 12.82.02 3.48-.19 4.73 1.32 4.5 4.56-.05.76 0 1.52 0 2.29zm-5.63-11.59c-4.1-.29-8.24-.2-12.35-.03-3.57.15-4.73-1.3-4.71-4.85.13-19.65.06-39.31.06-58.96 0-24.23.08-48.45-.08-72.68-.03-3.92.91-5.54 5.07-5.18 4.09.35 8.26.38 12.35 0 4.5-.43 5.37 1.62 5.35 5.55-.12 19.96-.06 39.92-.06 59.88v5.49c0 21.64-.08 43.27.07 64.91.03 4.25-1.18 6.2-5.7 5.88zm15.58-750.15c3.79.32 7.64.24 11.45.02 3.5-.2 4.7 1.33 4.41 4.58-.11 1.21-.01 2.44-.01 3.66v278.61 280.44q0 7.1-7.02 7.11c-3.36 0-6.72-.05-10.08-.02-2.6.03-4.06-.96-3.84-3.78.1-1.21 0-2.44 0-3.66 0-186.5 0-373 0-559.5 0-.76.1-1.54-.01-2.29-.59-4.01 1.03-5.51 5.1-5.17zm15.83 881.49c0 6.03-.02 6.03-5.98 6.04-3.51 0-7.04-.19-10.53.05-3.38.24-4.51-.93-4.47-4.37.16-14.33.07-28.67.06-43 0-6.4 0-12.81 0-19.21 0-19.97 0-39.95 0-59.92q0-6.12 6.34-6.13c3.66 0 7.33.08 10.99-.01 2.51-.06 3.68.98 3.58 3.5-.06 1.37.01 2.74.01 4.12zm-5.6-131.35c-3.18-.26-6.42-.26-9.6 0-4.27.34-5.95-1.07-5.81-5.63.31-10.5.1-21.02.1-31.53 0-32.91.09-65.82-.11-98.73-.03-4.61 1.15-6.33 5.85-5.8 3.47.39 7.03.29 10.51.02 3.65-.29 4.76 1.11 4.73 4.68-.14 16.3-.06 32.6-.06 48.91v17.37c0 21.63-.1 43.27.08 64.9.04 4.32-1.23 6.19-5.69 5.82zm4.3-148.15c-1.66 2.16-7.96.93-12.18.93-8.22 0-7.35 1.08-7.43-7.2-.02-1.52 0-3.05 0-4.57 0-11.9 0-11.95 12.01-11.88 10.07.06 8.89-1.38 8.87 9.59 0 4.5 1.01 10.16-1.27 13.13zm6.08 50.18c0-12.95.12-25.9-.07-38.85-.06-3.84 1.27-5.09 5.02-4.86 4.41.27 8.86.29 13.27 0 3.71-.25 4.63 1.18 4.61 4.7-.13 22.09-.07 44.18-.07 66.28 0 21.79-.08 43.58.08 65.36.03 3.93-1.09 5.59-5.15 5.35-4.11-.24-8.25-.26-12.35 0-4.31.28-5.42-1.56-5.41-5.64.14-30.78.07-61.55.07-92.33zm0-60.81q0-12.1 11.91-12.1 10.84 0 10.84 10.78v1.37q0 11.55-11.35 11.55-11.41 0-11.41-11.6zm17.67 296.24c-4.56-.33-9.16-.21-13.74-.03-3.04.12-4.19-1.14-3.93-4.03.05-.6 0-1.22 0-1.83 0-40.25 0-80.51 0-120.76 0-5.99.02-6 6.1-6.01h10.08q6.56 0 6.57 6.36v59.92c0 20.43-.11 40.86.09 61.29.04 4.07-1.16 5.38-5.18 5.09zm5.09-879.72v279.06 280.44q0 7-7.03 7.01c-3.97 0-7.94-.04-11.91-.02-2.65.02-3.98-1.14-3.82-3.88.08-1.37 0-2.74 0-4.12 0-186.2 0-372.39 0-558.59 0-1.07.09-2.14 0-3.2-.3-3.24.87-4.76 4.39-4.6 5.03.22 10.09-.13 15.11.22 1.15.08 2.59 1.83 3.14 3.14.54 1.3.14 3 .14 4.53zm4.86.7c0-10.2-.08-8.45 8.72-8.51 12.08-.09 12.08-.02 12.08 11.82v274.95 280.9q0 6.62-6.48 6.65-14.32.07-14.32-14.08c0-183.91 0-367.82 0-551.73zm0 584.76c-.04-14.09 0-14.13 12.75-14.07 9.04.04 7.93-1 8.04 8.08.02 1.37 0 2.74 0 4.12 0 11.49 0 11.58-11.41 11.46-10.13-.1-9.35 1.94-9.38-9.59zm15.75 294.25c-3.94-.34-7.94-.2-11.9-.04-2.8.11-3.87-1.09-3.84-3.75.05-4.12-.01-8.23-.01-12.35 0-36.59 0-73.19 0-109.78 0-6.73.02-6.73 6.84-6.74 3.21 0 6.43.19 9.62-.05 3.5-.25 4.41 1.24 4.39 4.53-.11 20.74-.06 41.47-.06 62.21 0 20.28-.1 40.56.09 60.84.04 4-1.03 5.49-5.13 5.13zm-.4-137.47c-3.8-.23-7.63-.1-11.44-.06-2.66.03-3.97-1.18-3.89-3.86.03-.91-.02-1.83-.02-2.74 0-42.81 0-85.63 0-128.44 0-6.5.02-6.5 6.54-6.5 3.05 0 6.13.24 9.15-.06 3.98-.4 5.24.95 5.2 5.05-.2 21.94-.09 43.88-.09 65.82 0 21.79-.11 43.58.1 65.36.04 4.34-1.48 5.68-5.54 5.44zm27.84 137.47c-4.4-.33-8.86-.24-13.28-.02-3.26.16-4.46-1.21-4.26-4.27.07-1.06 0-2.13 0-3.2 0-39.19 0-78.38 0-117.56q0-7.6 7.81-7.6h7.79q7.03 0 7.03 6.81v59.47c0 20.43-.11 40.87.09 61.3.04 4.07-1.16 5.39-5.18 5.08zm5.09-208.54c0 21.79-.11 43.58.09 65.36.04 4.43-1.35 6.03-5.73 5.72-4.1-.29-8.24-.17-12.35-.04-3.28.11-4.76-1.19-4.66-4.55.13-4.57.02-9.14.02-13.71 0-39 0-78.01 0-117.01 0-6.3.03-6.3 6.27-6.31 3.51 0 7.05.28 10.52-.07 4.5-.45 6.01.9 5.95 5.7-.28 21.63-.12 43.27-.12 64.9zm24.63 80.96c-.24 6.24-.06 12.49-.06 18.73v42.96 58.49q0 7.31-7.1 7.32c-2.9 0-5.8-.12-8.69.03-2.73.15-3.98-.96-3.89-3.67.04-1.06-.02-2.13-.02-3.2 0-39.61 0-79.21 0-118.82q0-6.92 7.09-6.93c2.44 0 4.9.2 7.32-.04 3.96-.4 5.5 1.09 5.35 5.13zm-.06-145.07v128.51c0 6.59-.03 6.6-6.67 6.62-2.6 0-5.2-.17-7.78.04-4.01.31-5.33-1.4-5.31-5.33.13-20.73.06-41.47.06-62.2 0-1.22 0-2.44 0-3.66 0-21.5.1-42.99-.08-64.48-.04-4.39.98-6.55 5.84-6 3.47.39 7.05-.19 10.51.23 1.23.15 2.49 1.85 3.29 3.13.49.77.14 2.08.14 3.15zm-19.69-31.93c-.02-2.62 1.04-3.88 3.82-3.79 3.95.14 7.91.16 11.86 0 3.06-.13 4.06 1.31 4 4.09-.06 2.73-.01 5.47-.01 8.2.02 11.44.02 11.51-11.58 11.42-8.02-.06-8.13 1.75-8.11-8.07 0-3.95.05-7.9.02-11.85zm19.69-574.66v279.46 279.01c0 7.56 0 7.63-7.55 7.56-14.01-.14-12.12 1.85-12.13-12.11-.04-184.48-.03-368.96-.03-553.44 0-1.22.11-2.45-.02-3.66-.42-3.99 1.28-5.5 5.28-5.18 3.64.29 7.36-.2 10.97.23 1.24.15 2.75 1.83 3.28 3.16.58 1.45.18 3.3.18 4.98zm4.86 670.56c0-21.79.1-43.58-.09-65.36-.03-4.01 1.06-5.42 5.14-5.12 4.7.35 9.46.17 14.18.06 2.56-.06 3.6.98 3.53 3.49-.08 2.89 0 5.79 0 8.68v122.95c0 6.41-.02 6.42-6.28 6.45-3.51.02-7.04-.22-10.52.06-4.46.35-6.11-1.08-6.06-5.85.25-21.78.11-43.57.11-65.36zm16.93 208.68c-4.09-.39-8.25-.31-12.36-.01-3.69.26-4.66-1.13-4.64-4.68.14-20.58.07-41.17.07-61.75 0-20.28.09-40.56-.08-60.84-.04-4.09 1-5.83 5.35-5.46 4.25.35 8.56.28 12.82.02 3.68-.23 4.76 1.23 4.73 4.76-.13 15.4-.06 30.8-.05 46.2 0 25.31-.11 50.62.1 75.93.04 4.65-1.28 6.27-5.93 5.83zm5.83-880.17v559.5q0 7.45-7.58 7.46c-3.82 0-7.64-.05-11.45-.02-2.68.02-3.94-1.15-3.74-3.89.11-1.52.01-3.05.01-4.57 0-93.02 0-186.04 0-279.07 0-93.17 0-186.35 0-279.52 0-8.07-.73-7.21 7.48-7.27 3.97-.03 7.97-.24 11.9.16 1.21.12 2.59 1.84 3.23 3.15.54 1.11.14 2.69.14 4.06zm4.78 671.96c0-21.8.12-43.6-.1-65.4-.04-4.49 1.39-5.93 5.74-5.55 3.79.33 7.63.17 11.44.04 2.56-.09 3.67.99 3.63 3.47-.02 1.22.04 2.44.04 3.66v127.6c0 6.85-.02 6.85-6.87 6.87-2.9 0-5.81-.18-8.7.04-4.02.3-5.27-1.37-5.25-5.32.15-21.8.07-43.6.07-65.4zm20.75 201.23q0 6.89-7.06 6.9c-2.59 0-5.19 0-7.78 0-5.89-.01-5.9-.01-5.91-6.11 0-20.11 0-40.21 0-60.32 0-20.26.09-40.52-.08-60.78-.04-4.14 1.16-5.82 5.44-5.45 3.79.33 7.62.17 11.43.04 2.71-.09 3.99 1.01 3.93 3.7-.02 1.07.03 2.13.03 3.2v118.81zm0-292.34c0 3.64-.06 7.29-.01 10.93.03 2.62-.98 3.87-3.79 3.77-4.25-.16-8.52-.2-12.77.01-3.22.16-4.41-1.09-4.2-4.22.17-2.57.03-5.16.03-7.74 0-11.79 0-11.86 11.68-11.76 9.37.07 9.07-1.74 9.06 9.01zm4.86 90.64c0-21.79.1-43.57-.09-65.36-.03-4.01 1.05-5.43 5.13-5.13 4.7.35 9.46.17 14.18.06 2.55-.06 3.61.97 3.53 3.49-.09 2.89 0 5.79 0 8.68v122.95c0 6.42-.02 6.43-6.28 6.46-3.51.02-7.04-.22-10.52.06-4.45.35-6.12-1.07-6.06-5.85.25-21.78.11-43.57.11-65.36zm0-86.71v-1.37q0-11.59 11.41-11.59 11.35 0 11.35 11.74 0 11.96-11.97 11.96-10.79 0-10.79-10.74zm22.82 167.72c-.21 6.55-.06 13.11-.06 19.67v101.09q0 6.83-7.03 6.83c-3.66 0-7.35-.24-10.99.07-3.95.34-4.83-1.3-4.81-4.97.15-20.58.07-41.17.07-61.75 0-20.28.1-40.56-.09-60.84-.04-4.03 1.13-5.47 5.19-5.16 4.25.32 8.56.29 12.82 0 3.93-.26 5.01 1.4 4.9 5.06zm-.04-754.88c-.14 1.36-.02 2.74-.02 4.12v278.15s0 186.65 0 279.98q0 7.09-7.03 7.1c-3.82 0-7.64-.09-11.45.01-3.04.08-4.63-1.04-4.3-4.28.12-1.21.02-2.44.02-3.66 0-186.19 0-372.39 0-558.58 0-1.07.12-2.15-.02-3.2-.47-3.61 1.03-4.91 4.66-4.69 4.41.26 8.87.28 13.28 0 3.94-.25 5.23 1.42 4.86 5.06zm20.64 882.54c-3.94-.34-7.94-.21-11.9-.03-2.99.14-4.08-1.03-4.01-3.97.13-6.1.03-12.2.03-18.3 0-34.76 0-69.53 0-104.29 0-6.04.02-6.05 6.05-6.06 3.36 0 6.74.22 10.07-.06 3.91-.33 4.9 1.3 4.87 4.99-.14 20.58-.07 41.17-.07 61.75 0 20.28-.1 40.56.09 60.84.04 3.99-1.02 5.49-5.12 5.14zm5.04-300.5c.01 1.37 0 2.74 0 4.12q0 11.75-11.61 11.75-9.31 0-9.32-10.03 0-13.67 13.09-13.65c8.77.03 7.75-.94 7.84 7.83zm-5.45 163.03c-3.95-.23-7.93-.07-11.9-.08-2.43 0-3.69-1.13-3.56-3.65.04-.91 0-1.83-.01-2.74 0-42.96 0-85.93 0-128.89 0-6.23.02-6.24 6.24-6.24 3.36 0 6.73.21 10.07-.06 3.6-.29 4.72.99 4.69 4.61-.15 21.94-.07 43.88-.07 65.82s-.11 43.88.1 65.82c.04 4.36-1.51 5.66-5.55 5.42zm5.45-742.24v279.06 280.44q0 7-7.03 7.01c-3.36 0-6.72-.04-10.08-.02-2.65.02-3.96-1.16-3.82-3.89.08-1.52 0-3.05 0-4.57 0-186.04 0-372.08 0-558.13 0-1.07.09-2.14-.01-3.2-.3-3.25.89-4.77 4.39-4.59 4.42.23 8.87-.16 13.27.22 1.16.1 2.59 1.84 3.14 3.14.54 1.3.14 3 .14 4.53zm5.08 574.66c.19-1.23 2.05-3.05 3.24-3.13 5.32-.34 10.69-.33 16.01 0 1.11.07 2.81 1.97 3.01 3.22.45 2.82.14 5.77.14 8.66q.02 11.65-11.7 11.65-10.92 0-10.91-10.83c0-3.2-.27-6.45.21-9.58zm22.42 96.85v64.45q0 6.21-6.43 6.23c-3.97.01-7.94-.09-11.9.01-3.16.08-4.48-1.37-4.3-4.42.05-.76 0-1.52 0-2.28 0-42.81 0-85.63 0-128.44 0-6.42.03-6.42 6.62-6.43 3.81 0 7.65.23 11.44-.06 3.68-.28 4.66 1.12 4.64 4.67-.14 22.09-.07 44.18-.07 66.28zm-5.1 208.2c-4.4-.33-8.86-.24-13.28-.02-3.27.16-4.32-1.23-4.27-4.28.1-5.94.01-11.89.01-17.84 0-33.7-.01-67.39 0-101.09 0-11.26-.62-9.23 9.64-9.42 2.29-.04 4.58-.01 6.87 0 6.09.01 6.1.01 6.11 5.91v60.84c0 20.28-.11 40.56.09 60.84.04 4.09-1.19 5.37-5.19 5.07zm9.95-142.39c.09-1.06 0-2.13 0-3.2 0-41.75 0-83.5 0-125.24 0-10.04-.02-8.06 8.47-8.24 2.59-.05 5.21.21 7.78-.06 3.7-.39 4.64 1.15 4.62 4.67-.13 22.09-.07 44.19-.07 66.28 0 21.79-.08 43.58.08 65.36.03 3.92-1.08 5.62-5.15 5.35-3.65-.24-7.33-.19-10.98-.01-3.62.17-5.03-1.45-4.75-4.91zm20.8 76.34c0 20.28-.09 40.56.08 60.84.03 3.86-.81 5.61-5.03 5.22-3.94-.36-7.94-.19-11.9-.04-2.72.1-4.01-.93-3.91-3.66.04-1.07-.03-2.13-.03-3.2 0-39.64 0-79.29 0-118.93 0-6.82.02-6.93 6.76-6.79 4.51.09 10.47-1.08 13.07 1.29 2.28 2.08.93 8.29.95 12.68.06 17.53.02 35.07.02 52.6zm27.51-18.92v78.62 6.26c-7 0-13.37.12-19.73-.12-.98-.04-2.21-1.59-2.74-2.71-.48-1.01-.17-2.39-.17-3.61 0-39.77 0-79.53 0-119.3 0-6.81.02-6.81 6.75-6.82 3.51 0 7.04.23 10.52-.06 4.06-.33 5.56.87 5.47 5.24-.28 14.16-.11 28.34-.11 42.51zm19.24 78.12v6.51h-13.4c-.09-1.56-.26-3.16-.26-4.76-.01-40.84.05-81.68-.1-122.51-.01-4.04 1.09-5.28 5.14-5.12 10.15.39 8.58-1.08 8.6 8.4.07 39.16.03 78.32.03 117.48zm-5.03-130.64c-1.66-.18-3.36-.09-5.03-.05-2.76.08-3.65-1.24-3.65-3.93.06-44.97.05-89.95.07-134.92 0-.72.19-1.45.32-2.41h13.05c.09 1.54.26 3.14.26 4.73.01 43.75-.03 87.51.09 131.26.01 3.92-1.02 5.74-5.1 5.31zm10.6-135.69v-5.84c6.33 0 12.08-.08 17.82.1.75.02 1.79 1.32 2.1 2.23.38 1.09.14 2.41.14 3.63v129.36c0 6.14-.02 6.28-6.01 6.15-4.51-.09-10.47 1.01-13.09-1.37-2.28-2.08-.94-8.28-.95-12.67-.04-40.53-.02-81.06-.02-121.59zm20.08-14.57c.04 2.41-1.05 3.16-3.31 3.12-5.3-.09-10.61-.03-16.72-.03 0-7.53-.09-14.47.12-21.4.02-.78 1.65-2.11 2.59-2.16 4.7-.22 9.43-.31 14.11.04 1.13.09 2.98 1.99 3.04 3.14.31 5.75.08 11.52.17 17.29zm.09 282.16c.02 4.38-1.12 5.95-5.58 5.6-4.65-.37-9.35-.08-14.34-.08-.1-2.2-.23-3.83-.23-5.46-.01-40.51.05-81.01-.1-121.52-.02-4.26.92-6.13 5.49-5.68 3.78.37 7.65-.16 11.41.24 1.18.13 2.29 1.93 3.18 3.14.37.5.08 1.48.08 2.24 0 40.51-.07 81.01.1 121.52zm-.12-868.42c.03 184.52.02 369.04.02 553.56q0 7.24-7.25 7.25c-3.05 0-6.11-.07-9.16-.02-2.72.05-3.91-1.16-3.67-3.89.12-1.36.02-2.74.02-4.12 0-93.17 0-186.35 0-279.52 0-93.48 0-186.96 0-280.44 0-6.35 0-6.46 6.48-6.32 4.35.09 10.11-1.02 12.63 1.26 2.21 2 .94 8 .94 12.23zm27.53 867.63v6.28c-6.98 0-13.35.12-19.71-.12-.98-.04-2.28-1.57-2.75-2.69-.49-1.18-.19-2.7-.19-4.07 0-39.61 0-79.23 0-118.84 0-6.83.02-6.83 6.73-6.84h9.16q6.76 0 6.76 6.53v39.77 79.99zm-5.94-131.08c-4.26-.29-8.55-.11-12.82-.07-2.68.02-3.94-1.24-3.87-3.9.03-.91-.02-1.83-.02-2.74 0-42.84 0-85.68 0-128.52 0-6.38.03-6.38 6.2-6.39h16.2c.1 2.2.23 3.83.23 5.47.01 43.45-.07 86.9.12 130.35.02 4.82-1.63 6.11-6.05 5.81zm11.51-463.21c0-93.46 0-186.92 0-280.38q0-6.5 6.33-6.5c3.51 0 7.03.11 10.53-.03 2.72-.1 3.98 1.02 3.92 3.72-.03 1.37.02 2.74.02 4.12v558.93c0 1.22-.05 2.44-.02 3.66.07 2.63-1.12 3.96-3.83 3.94-4.58-.05-9.18.19-13.73-.2-1.16-.1-2.5-1.93-3.12-3.26-.52-1.13-.12-2.7-.12-4.07 0-93.31 0-186.61 0-279.92zm20.59 312.9c-.06 1.1-2.1 2.89-3.31 2.96-5.45.32-10.93.14-17.23.14 0-7.53-.07-14.47.1-21.42.02-.76 1.39-2.09 2.17-2.12 5.17-.2 10.36-.29 15.51.02 1.03.06 2.74 1.97 2.79 3.1.28 5.76.31 11.55-.03 17.31zm.21 281.36c0 6.31-.03 6.31-6.26 6.32-4.57 0-9.13 0-14.55 0 0-2.25 0-3.88 0-5.52 0-40.53.07-81.05-.1-121.58-.02-4.4 1.18-5.99 5.62-5.56 3.78.36 7.63.18 11.44.05 2.79-.1 3.9 1.16 3.83 3.79-.02.91.02 1.83.02 2.74v119.75zm0-266.02v128.06c0 6.82-.02 6.82-6.91 6.84-2.75 0-5.52-.21-8.24.05-4.3.4-5.82-1.09-5.76-5.61.23-20.12.1-40.25.1-60.37 0-23.17 0-46.35 0-69.52v-6.09c6.38 0 12.01-.16 17.62.14 1.09.06 2.39 1.7 3.02 2.9.51.97.16 2.39.16 3.61zm27.36-78.4c0 2.53-1.06 3.55-3.59 3.38-2.24-.15-4.49-.03-7.54-.03 0-8.58 0-16.33 0-24.08.02-11.41.11-22.82.02-34.23-.03-3.28 1.04-4.82 4.5-4.45 2.97.31 6.71-1.13 6.68 4.2-.11 18.41-.09 36.81-.08 55.22z" fill="url(#a)"/></svg>