<?xml version="1.0" encoding="UTF-8"?>
<svg id="_レイヤー_2" data-name="レイヤー 2" xmlns="http://www.w3.org/2000/svg" xmlns:xlink="http://www.w3.org/1999/xlink" viewBox="0 0 582.16 1029.63">
  <defs>
    <style>
      .cls-1 {
        fill: url(#_名称未設定グラデーション_247);
      }
    </style>
    <linearGradient id="_名称未設定グラデーション_247" data-name="名称未設定グラデーション 247" x1="0" y1="514.82" x2="582.16" y2="514.82" gradientUnits="userSpaceOnUse">
      <stop offset=".14" stop-color="#8c6239"/>
      <stop offset=".89" stop-color="#a98158"/>
    </linearGradient>
  </defs>
  <g id="_レイヤー_1-2" data-name="レイヤー 1">
    <path class="cls-1" d="m16.99,555.2s-.03,0-.05,0c0,9.13-.15,18.27.07,27.39.1,4.11-2.41,3.88-5.05,3.73-2.62-.15-6.17,1.23-6.06-3.69.09-4.1-.22-8.22-.21-12.32.02-14,.26-27.99.09-41.99-.06-5.31,3.16-4.61,6.59-4.86,3.85-.28,4.69,1.5,4.66,4.81-.09,8.98-.03,17.95-.03,26.93ZM0,0v365.17h.75v664.46h581.41V0H0Zm497.9,637.42c.01,11.58.01,11.66-11.36,11.59-10.09-.06-9.29,1.88-9.35-9.52-.02-3.49.05-6.98.02-10.47-.02-2.67,1.18-3.79,3.89-3.71,4.24.13,8.5.14,12.74,0,2.88-.1,4.23.93,4.09,3.92-.13,2.73-.03,5.46-.03,8.19ZM449.54,52.34q0-6.39,6.43-6.4c3.97,0,7.94.15,11.9-.04,3.24-.16,4.44,1.25,4.29,4.31-.08,1.52,0,3.05,0,4.58,0,80.23-.02,160.46,0,240.69.04,106.01.11,212.02.16,318.03q0,6.96-7.06,6.98c-3.97,0-7.93-.04-11.9-.02-2.67.02-3.94-1.2-3.78-3.91.08-1.37,0-2.74,0-4.12,0-93.2,0-186.39,0-279.59h-.06c0-93.5,0-187,0-280.5Zm22.79,583.63c0,.46,0,.91,0,1.37q0,11.71-11.64,11.71-11.1,0-11.1-11.45,0-12.26,12.2-12.26,10.54,0,10.54,10.63Zm-27.5,9.63c.06,2.54-1.02,3.53-3.55,3.47-4.72-.11-9.45-.11-14.18,0-2.4.05-3.26-.96-3.18-3.27.1-2.89.02-5.79.02-8.69-.02-11.77-.02-11.83,11.66-11.75,10.32.07,9.13-1.49,9.22,9.27.03,3.66-.08,7.32,0,10.98Zm-53.22-11.04c0,3.66-.05,7.32-.03,10.98.01,2.42-.96,3.61-3.56,3.54-4.57-.13-9.15-.13-13.72,0-2.55.07-3.59-.89-3.48-3.45.13-2.89.03-5.79.03-8.69-.01-11.6-.01-11.67,11.38-11.57,9.85.08,9.36-1.78,9.37,9.2Zm-48.23,90.02c0-21.66.1-43.31-.09-64.97-.04-4.09,1.18-5.38,5.18-5.08,4.4.33,8.85.24,13.26.02,3.26-.16,4.37,1.22,4.26,4.28-.11,3.2-.01,6.4-.01,9.61.04,40.42.09,80.83.13,121.25,0,6.51-.02,6.52-6.67,6.53-3.81,0-7.63-.14-11.44.03-3.59.16-4.7-1.33-4.68-4.87.13-22.27.06-44.53.06-66.8Zm22.42-78.66c-.04,1.06-1.55,2.91-2.43,2.94-6.48.25-12.97.14-19.96.14,0-7.49-.07-14.44.1-21.38.02-.76,1.38-2.1,2.16-2.13,5.77-.19,11.56-.27,17.32.02,1.03.05,2.74,1.97,2.8,3.09.28,5.76.26,11.55.01,17.32Zm-28.03-6.25c.12,2.86.02,5.73.02,9.34-5.83,0-10.98.17-16.09-.15-1-.06-2.63-2-2.69-3.14-.28-5.61-.13-11.24-.14-16.87,0-2.41,1.03-3.73,3.59-3.52.15.01.3,0,.46,0,4.68.14,10.99-1.46,13.59.94,2.46,2.28,1.08,8.75,1.27,13.39ZM298.34,45.98c3.51,0,7.03.2,10.52-.05,3.9-.27,5.27,1.47,4.96,5.11-.09,1.06,0,2.13,0,3.2,0,56.73,0,113.46,0,170.18,0,36.45,0,72.89,0,109.34.06,0,.12,0,.17,0,0,93.33,0,186.65,0,279.98q0,6.71-6.84,6.73c-3.96,0-7.93-.06-11.89,0-2.9.04-4.23-1.24-4-4.17.08-1.06,0-2.13,0-3.2-.02-186.65-.04-373.31-.06-559.96q0-7.15,7.15-7.16Zm15.64,589.63v1.83q0,11.6-11.75,11.6-10.99,0-10.99-11.1,0-12.61,12.31-12.61,10.42,0,10.42,10.28Zm-80.61,1.82q.02,11.61-11.76,11.61-9.13,0-9.13-9.13c0-3.65.08-7.29-.01-10.94-.06-2.48.95-3.63,3.48-3.59,4.56.06,9.12.07,13.67-.01,2.74-.05,3.85,1.19,3.77,3.86-.09,2.73-.02,5.47-.02,8.2Zm-25.75-1.22c.02,2.44.02,4.88,0,7.32-.05,5.56-.54,6.11-5.94,6.21-4.12.07-8.24-.06-12.35.03-3.01.07-4.57-.96-4.34-4.25.19-2.73.04-5.49.04-8.23,0-11.92,0-11.99,11.99-11.9,11.75.09,10.52-1.82,10.61,10.82Zm-27.43,9.04c.12,3.37-1.39,4.65-4.66,4.53-3.95-.14-7.91-.11-11.87-.02-3.03.07-4.53-1.03-4.3-4.27.19-2.73.04-5.48.04-8.21q0-11.92,12.04-11.91c8.56,0,8.58,0,8.71,8.47.06,3.8-.1,7.61.04,11.41Zm-20.79,79.75c0-21.66.09-43.32-.08-64.98-.03-4.06.94-5.88,5.32-5.48,3.93.36,7.93.16,11.89.06,2.57-.07,3.62,1.13,3.6,3.55,0,1.07.04,2.14.04,3.2,0,42.71,0,85.42,0,128.13,0,6.7-.02,6.7-6.55,6.73-3.2.01-6.41-.14-9.61.03-3.6.19-4.7-1.35-4.68-4.88.12-22.12.06-44.24.06-66.35Zm-27.46,0h-.02c0-21.79.11-43.58-.09-65.37-.04-4.08,1.16-5.37,5.16-5.09,4.55.32,9.14.18,13.71.05,2.79-.08,3.89,1.18,3.82,3.81-.02.61.02,1.22.02,1.83,0,43.43-.05,86.85.08,130.28.01,4.39-1.44,6.07-5.81,5.76-3.79-.27-7.62-.23-11.42,0-4.05.24-5.58-1.09-5.54-5.43.21-21.94.1-43.88.1-65.82Zm22.6-89.21c.02,3.2-.09,6.4.01,9.6.1,3.09-1.22,4.45-4.34,4.38-4.72-.11-9.45-.12-14.17,0-3.15.08-4.4-1.21-4.16-4.36.2-2.57.04-5.18.04-7.77,0-12.28,0-12.35,12.08-12.26,11.54.09,10.47-1.79,10.54,10.4ZM40.1,46.11c3.36,0,6.71.04,10.07.02,2.64-.02,3.97,1.14,3.82,3.88-.08,1.37,0,2.75,0,4.12,0,93.21,0,186.42,0,279.63h.06c0,93.36,0,186.72,0,280.09q0,6.76-6.64,6.77c-3.36,0-6.72-.11-10.07.02-2.99.12-4.15-1.29-4.07-4.11.05-1.68-.01-3.36-.01-5.03,0-76.43.02-152.86,0-229.29-.04-109.68-.11-219.37-.16-329.05q0-7.01,7.01-7.03Zm3.48,579.28c10.47-.09,10.48-.02,10.47,10.67,0,.46,0,.91,0,1.37,0,1.68,0,3.35,0,5.03q0,7.3-7.1,7.31-13.69.03-13.68-13.74c.03-12.33-1.06-10.54,10.31-10.63Zm11.2,302.38c0,6.63-.03,6.64-6.62,6.66-3.2,0-6.41-.14-9.6.03-3.59.19-4.66-1.3-4.63-4.85.15-20.58.07-41.17.07-61.76,0-20.59.08-41.17-.07-61.76-.03-3.69.94-5.3,4.84-5.03,3.95.27,7.93.17,11.89.04,2.96-.1,4.21,1.21,4.11,4.07-.03.91.01,1.83.01,2.74,0,39.95,0,79.9,0,119.86Zm-5.52-131.36c-3.33-.28-6.73-.32-10.05,0-4.37.42-5.33-1.45-5.3-5.51.18-21.19.08-42.39.08-63.58,0-20.43,0-40.86,0-61.29,0-1.22.06-2.44-.03-3.66q-.55-7.75,7.35-7.75c2.74,0,5.51.21,8.23-.05,3.7-.35,4.6,1.19,4.59,4.71-.11,32.78-.13,65.56-.03,98.34.03,11.11.34,22.22.75,33.33.15,4.2-1.38,5.81-5.58,5.46Zm10.36-247.19c0-17.24.03-34.47,0-51.71-.23-98.21-.51-196.43-.71-294.64-.1-50.18-.1-100.37-.13-150.55,0-6.05.02-6.1,6.09-6.25,4.27-.1,8.54.01,12.81-.09,2.65-.06,4.04.9,3.84,3.73-.1,1.37,0,2.74,0,4.12,0,88.32,0,176.64,0,264.96h.02c0,87.71-.02,175.42.03,263.13,0,10.81.51,21.62.67,32.43.09,6.25-.02,6.26-6.45,6.28-3.51,0-7.04-.25-10.52.06-4.32.39-5.78-1.03-5.73-5.56.23-21.96.1-43.93.1-65.9Zm0,87.99c0-1.37-.02-2.74,0-4.11.12-8.33-1.2-7.67,7.95-7.72,3.66-.02,7.31.07,10.97,0,2.51-.05,3.65,1.12,3.65,3.56,0,5.64-.01,11.27.03,16.91.02,2.65-1.16,3.93-3.85,3.91-5.03-.04-10.05-.05-15.08,0-2.68.03-3.86-1.1-3.71-3.86.16-2.89.04-5.79.04-8.68Zm5.03,17.34c4.55.33,9.14.18,13.71.05,2.77-.08,3.91,1.13,3.85,3.78-.02,1.07.02,2.13.02,3.2,0,42.66,0,85.32,0,127.98,0,6.78-.02,6.78-6.85,6.79-3.05,0-6.09,0-9.14,0q-6.59-.01-6.6-6.41c0-21.64,0-43.27,0-64.91h-.02c0-21.79.1-43.58-.09-65.36-.04-4.04,1.08-5.42,5.13-5.12Zm17.71,272.48q0,7.4-7.63,7.41c-2.9,0-5.8.01-8.69,0q-6.4-.03-6.41-6.24c0-36.75,0-73.51,0-110.26,0-3.97.21-7.94-.06-11.89-.25-3.82,1.2-5.27,4.97-4.96,2.57.22,5.18.01,7.77.04,10.74.14,9.9-1.57,9.91,10.15.02,18.91,0,37.82,0,56.73h.13c0,19.67,0,39.35,0,59.02Zm4.02-877.41c0-2.39,1.05-3.67,3.59-3.63,4.57.07,9.17-.2,13.71.18,1.2.1,2.65,1.88,3.23,3.21.56,1.29.15,3,.15,4.52,0,93.18,0,186.35,0,279.53h.06c0,93.48,0,186.96,0,280.45q0,6.72-6.67,6.73c-3.05,0-6.11-.13-9.15.03-3.14.16-4.32-1.06-4.27-4.25.13-10.06.03-20.13.03-30.19,0-90.28.09-180.56-.03-270.84-.12-86.9-.46-173.8-.7-260.71,0-1.68.03-3.35.04-5.03Zm20.74,588.04q0,12.13-12.27,12.12c-1.37,0-2.74-.06-4.1-.03-2.7.06-3.75-1.21-3.69-3.91.12-5.62.09-11.24.01-16.86-.04-2.49.96-3.62,3.48-3.58,4.4.07,8.81.08,13.22,0,2.6-.05,3.48,1.15,3.38,3.61-.12,2.88-.03,5.77-.03,8.66Zm.73,170.22c0,39.78,0,79.56,0,119.34,0,6.49-.03,6.43-6.54,6.52-2.73.04-5.46.3-8.17.59-4.96.53-6-.29-6-5.23-.02-20.58,0-41.15,0-61.73h-.04c0-20.27.1-40.54-.08-60.81-.04-4.14,1.11-5.85,5.39-5.49,3.63.3,7.32.24,10.96-.01,3.49-.24,4.71,1.31,4.49,4.54-.05.76,0,1.52,0,2.29Zm-4.79-11.55c-3.81-.1-7.63-.17-11.43.07-3.72.24-4.62-1.42-4.61-4.86.11-22.11.06-44.21.06-66.32,0-21.8.08-43.6-.08-65.41-.03-3.9.92-5.61,5.08-5.25,3.78.33,7.62.2,11.43.04,2.83-.12,3.64,1.05,3.65,3.76.18,44.35.42,88.69.72,133.04.02,3.53-1.33,5.02-4.83,4.93ZM111.75,51.86c-.05-4.63,1.33-6.14,5.97-5.97,9.49.34,8.56-.6,8.57,8.76.01,92.9,0,185.79,0,278.69h.06c0,93.51,0,187.01-.05,280.52,0,2.14-.46,5.99-1.2,6.12-3.68.63-7.53.34-11.31.15-.39-.02-.91-1.45-1.02-2.27-.18-1.35-.07-2.74-.07-4.11,0-70.17.09-140.34-.02-210.51-.15-94.71-.47-189.41-.7-284.12-.06-22.42.03-44.85-.22-67.27Zm14.45,594.39c-.1,1.22-1.93,2.31-2.98,3.45-.07.08-.29.02-.45.04-9.92.92-10.08.77-10.08-9.3v-3.2c0-1.83,0-3.65,0-5.48q0-6.37,6.54-6.37,7.11,0,7.11,7.18c0,4.57.21,9.15-.15,13.69Zm-8.44,8.3c10.1.39,8.51-1.09,8.57,8.43.1,15.09-.06,30.18.04,45.26.18,27.11.5,54.21.63,81.32.01,2.08-.77,5.83-1.61,5.96-3.81.58-7.79.3-11.65-.16-.52-.06-.99-2.93-.99-4.49-.06-21.95-.04-43.89-.04-65.84h-.02c0-21.79.1-43.59-.09-65.38-.04-4.08,1.16-5.25,5.16-5.1Zm9.31,272.19q0,6.97-6.99,6.97c-.76,0-1.54-.1-2.29.02-3.99.62-5.21-.95-5.17-5.02.2-20.28.09-40.57.09-60.86,0-20.44.09-40.88-.08-61.32-.03-3.99.82-5.76,5.27-5.54,9.62.48,9.16-1.54,9.16,9.07.01,38.9,0,77.79,0,116.69Zm4.82-486.94c-.17-96.06-.48-192.12-.7-288.18-.08-33.25-.01-66.49-.22-99.74-.03-4.59,1.27-6.36,5.95-5.98,4.24.35,8.54.17,12.8.05,2.84-.08,4.34.89,4.08,3.94-.12,1.36-.01,2.74-.01,4.12,0,79.76,0,159.52,0,239.28h.02c0,79.3-.06,158.61.03,237.91.03,27.58.47,55.17.68,82.75.05,6.62-.02,6.63-6.55,6.64-4.27,0-8.56.21-12.8-.18-1.17-.11-2.53-1.86-3.14-3.16-.53-1.13-.12-2.69-.12-4.07,0-57.8.08-115.6-.02-173.4Zm16.69,493.91c-4.12,0-8.24-.2-12.34.06-3.49.23-4.39-1.14-4.37-4.46.12-20.73.06-41.46.06-62.19,0-20.12.15-40.24-.12-60.36-.06-4.79,1.48-6.16,5.98-5.75,3.78.34,7.64.36,11.42,0,4.48-.43,5.47,1.65,5.37,5.59-.17,6.4.07,12.8.07,19.2.01,33.99.01,67.98,0,101.97,0,5.93-.02,5.93-6.08,5.94ZM166.22,45.98q13.16,0,13.16,13.23c0,91.35,0,182.69,0,274.04h.06c0,93.63,0,187.27,0,280.9q0,6.44-6.49,6.46-13.56.03-13.56-13.65c0-114.53.07-229.05-.05-343.58-.07-69.98-.46-139.95-.69-209.93-.03-7.46,0-7.46,7.56-7.47Zm8.34,887.8c-3.46-.39-7.02-.3-10.5-.02-3.7.3-4.7-1.19-4.68-4.71.12-20.72.06-41.44.06-62.15h-.05c0-20.26.1-40.52-.09-60.78-.04-4.08,1.24-5.43,5.22-5.11,3.63.3,7.32.27,10.96,0,3.73-.26,4.8,1.41,4.71,4.83-.15,5.48-.04,10.97-.03,16.45.04,35.19.01,70.38.22,105.57.03,4.5-1.04,6.45-5.82,5.91Zm10.42-580.43c-.13-95.14-.46-190.29-.71-285.43-.02-5.95,0-11.9-.14-17.84-.07-2.88,1.03-4.19,4.01-4.12,5.03.11,10.07.11,15.1,0,2.81-.05,3.84,1.24,3.65,3.9-.09,1.21,0,2.44,0,3.66,0,66.04,0,132.07,0,198.11h.02c0,65.27-.09,130.55.03,195.82.1,55.34.46,110.68.69,166.02.03,7.13,0,7.13-6.98,7.13-4.12,0-8.26.22-12.34-.18-1.18-.11-2.61-1.83-3.16-3.13-.55-1.3-.13-3-.13-4.53,0-86.47.09-172.94-.03-259.42Zm.04,372.16c0-21.8.12-43.61-.1-65.41-.05-4.5,1.37-5.92,5.71-5.56,4.09.34,8.25.31,12.34,0,3.8-.29,4.78,1.4,4.68,4.8-.15,5.18-.04,10.37-.03,15.55.04,38.27.09,76.53.13,114.8,0,6.49-.02,6.49-6.68,6.51-3.81.01-7.63-.14-11.43.03-3.59.16-4.7-1.33-4.68-4.87.13-21.95.06-43.91.06-65.86Zm22.81,80.63c-.25,9.9-.08,19.82-.08,29.73,0,30.03.01,60.07,0,90.1,0,9,.53,7.62-7.94,7.73-3.2.04-6.43-.24-9.6.07-4.02.38-5.26-1.08-5.22-5.12.18-17.38.05-34.76.04-52.14,0-3.2,0-6.4,0-9.6,0-19.97,0-39.94,0-59.91q0-5.9,6.09-5.92c3.81,0,7.64.22,11.43-.06,3.96-.3,5.4,1.05,5.29,5.13Zm4.65-193.73c0-72.14,0-144.27,0-216.41h-.02c0-71.07.08-142.14-.03-213.2-.07-43.14-.46-86.28-.69-129.42-.04-7.41,0-7.51,7.16-7.38,4.36.08,10.09-1.03,12.64,1.25,2.21,1.97.96,7.99.96,12.21.04,63.75-.06,127.5.05,191.24.16,94.84.47,189.68.7,284.52.06,25.77.09,51.55.13,77.32q.01,8.05-8.28,8.05c-2.9,0-5.8-.11-8.69.02-2.98.13-4.18-1.17-3.94-4.09.11-1.36.01-2.74.01-4.12Zm.04,112.7h-.04c0-21.02-.03-42.05.01-63.07.02-8.56-.9-7.32,7.65-7.43,2.89-.04,5.81.22,8.68-.06,3.8-.38,4.94,1.36,4.57,4.78-.07.6,0,1.22,0,1.83,0,42.81,0,85.62,0,128.43q0,6.61-6.55,6.63c-3.05.01-6.11-.18-9.14.04-4.01.29-5.26-1.38-5.24-5.33.15-21.94.07-43.88.07-65.81Zm15.9,208.66c-3.93-.35-7.93-.21-11.88-.03-2.94.13-4.14-.94-4.05-3.93.14-4.57.03-9.15.03-13.72,0-35.67,0-71.35,0-107.02,0-8.96-.52-7.93,7.77-7.99,2.74-.02,5.51.2,8.23-.05,3.89-.36,4.95,1.33,4.92,5.01-.13,20.58-.06,41.16-.06,61.74h.04c0,20.28-.1,40.55.08,60.83.04,3.94-.94,5.54-5.08,5.17Zm9.67-881.35q0-6.43,6.49-6.45c3.97,0,7.93.07,11.9,0,2.49-.05,3.73.91,3.5,3.49-.05.6,0,1.22,0,1.83.24,95.15.56,190.29.71,285.44.14,92.27.11,184.54.15,276.81q0,6.9-6.74,6.93c-4.12.02-8.23.04-12.35.12-2.48.05-3.66-1.07-3.59-3.57.05-1.52-.01-3.05-.01-4.57,0-93.19,0-186.37,0-279.56h-.06c0-93.49,0-186.98,0-280.47Zm22.75,583.15c0,.61,0,1.22,0,1.82q0,11.64-11.62,11.64-11.07,0-11.07-11.4,0-12.27,12.21-12.31,10.48-.03,10.48,10.25Zm-22.69,126.52c0-33.83,0-67.67,0-101.5,0-5.98.02-5.99,6.03-5.99,3.96,0,7.94.23,11.88-.07,3.81-.29,4.93,1.08,4.9,4.87-.16,21.95-.08,43.89-.08,65.84,0,21.79-.12,43.59.1,65.38.04,4.54-1.53,5.92-5.8,5.64-4.25-.27-8.53-.14-12.8-.05-3.13.07-4.3-1.29-4.27-4.4.11-9.91.03-19.81.03-29.72Zm22.73,114.44c0,17.23,0,34.46,0,51.69,0,1.63,0,3.26,0,5.43-7.04,0-13.55.08-20.05-.1-.82-.02-1.98-1.25-2.3-2.16-.43-1.24-.24-2.71-.25-4.08-.05-39.79-.1-79.59-.14-119.38q0-6.87,7.07-6.87c3.35,0,6.73.26,10.06-.06,4.35-.42,5.75,1.06,5.71,5.55-.21,23.33-.1,46.65-.1,69.98Zm4.73-264.11c0-93.2,0-186.41,0-279.61h-.06c0-93.36,0-186.71,0-280.07q0-6.76,6.63-6.77c2.44,0,4.88,0,7.32,0q6.09.02,6.11,5.92c0,23.64,0,47.29,0,70.93,0,12.05-.03,24.1,0,36.15.24,97.15.51,194.3.71,291.45.11,54.61.1,109.22.14,163.83,0,6.08-.1,6.17-6.08,6.2-3.66.02-7.32-.04-10.98-.02-2.66.02-3.95-1.18-3.79-3.9.08-1.37,0-2.74,0-4.12Zm.02,24.67c-.02-11.77-.02-11.83,11.76-11.76,10.05.06,9-1.4,9.08,8.96.03,3.66-.09,7.32.02,10.98.08,2.69-.88,3.89-3.72,3.79-4.42-.16-8.85-.14-13.26,0-2.73.08-3.94-1.02-3.89-3.73.06-2.74.01-5.49.01-8.23Zm.08,154.16c.19-3.03.03-6.09.03-9.14,0-39.91,0-79.82,0-119.74,0-9.54.27-7.61,7.99-7.79,1.52-.03,3.05-.02,4.57,0,8.97.14,8.15-1.34,8.17,8.41.04,20.72.01,41.44.01,62.15h.04c0,21.78-.11,43.57.09,65.35.04,4.38-1.27,6.11-5.68,5.75-3.33-.28-6.71-.2-10.05-.02-3.67.2-5.4-1.14-5.16-4.98Zm20.8,76.34c0,20.42-.09,40.84.07,61.26.03,3.74-1,5.21-4.86,4.91-3.79-.3-7.63-.27-11.42,0-3.03.22-4.1-1.21-4.32-3.83-.13-1.51-.23-3.04-.23-4.56-.01-39.31-.02-78.63,0-117.94,0-6.35.03-6.46,6.27-6.33,4.65.09,10.8-1.15,13.49,1.28,2.36,2.14.96,8.56.98,13.1.06,17.37.03,34.74.03,52.11Zm27.46-22.06c0,27.58,0,55.15.01,82.73,0,1.52,0,3.03,0,5.38-7.09,0-13.59.08-20.1-.1-.81-.02-2-1.27-2.27-2.18-.42-1.41-.25-3.01-.25-4.53,0-39.61,0-79.23,0-118.84q0-6.93,7.08-6.93c3.81,0,7.63.16,11.42-.04,3.27-.18,4.17,1.21,4.14,4.29-.11,13.41-.04,26.81-.04,40.22Zm-5.34-49.28c-3.95-.25-7.94-.27-11.89,0-4.35.3-5.46-1.65-5.44-5.68.1-18.91-.05-37.82-.06-56.74-.02-24.56.09-49.11-.1-73.67-.03-4.36,1.14-6.05,5.63-5.66,4.09.36,8.25.3,12.34.01,3.78-.27,4.95,1.03,4.93,4.85-.16,21.96-.08,43.93-.08,65.89,0,21.81-.1,43.62.09,65.43.04,4.19-1.21,5.82-5.42,5.55Zm10.02-743.1q0-7.18,7.22-7.19,11.85-.01,11.85,11.81c0,91.84,0,183.67,0,275.51h.06c0,93.36,0,186.72,0,280.08,0,7.08,0,7.15-6.87,7.08-13.98-.14-12.06,1.86-12.07-12.16-.1-185.04-.14-370.09-.2-555.13Zm19.86,754.73c0,39.79,0,79.59,0,119.38,0,6.42-.02,6.42-6.54,6.43-3.93,0-7.85,0-12.42,0v-21.36c0-18.91.09-37.81-.03-56.72-.1-16.14-.49-32.28-.68-48.42-.07-6.11.03-6.11,6.05-6.13,3.05,0,6.11.18,9.14-.04,3.5-.26,4.69,1.37,4.47,4.58-.05.76,0,1.52,0,2.29Zm0-146.88c0,42.85,0,85.71,0,128.56,0,6.61-.03,6.61-6.64,6.63-2.59,0-5.2-.17-7.77.04-3.99.31-5.34-1.35-5.32-5.31.13-20.28.06-40.57.06-60.85,0-1.53,0-3.05,0-4.58,0-21.35,0-42.7,0-64.05q0-6.85,6.64-6.86c3.2,0,6.45-.29,9.59.16,1.25.18,2.5,1.84,3.31,3.11.49.77.14,2.08.14,3.15Zm3.93-610.09c-.06-3.75,1.2-5.25,5.01-5.05,4.41.24,8.86.27,13.26-.01,3.78-.24,4.68,1.38,4.57,4.82-.2,6.4-.06,12.81-.06,19.22,0,63.76,0,127.52,0,191.27h.02c0,68.79-.09,137.58.03,206.38.08,48.48.46,96.97.69,145.45.04,7.46,0,7.46-7.64,7.46-3.51,0-7.02-.12-10.52.02-3.26.13-4.61-1.03-4.52-4.51.22-7.77.07-15.56.07-23.34,0-72.76.09-145.52-.02-218.27-.15-95.62-.46-191.23-.7-286.85-.03-12.2.02-24.41-.18-36.6Zm17.97,882.86c-3.77-.41-7.64-.35-11.42-.01-4.34.38-5.77-1.05-5.72-5.55.23-20.43.1-40.86.1-61.3,0-20.13.13-40.26-.1-60.38-.05-4.52,1.41-5.9,5.73-5.54,3.94.33,7.94.29,11.88,0,3.95-.29,5.4,1.03,5.3,5.13-.25,9.91-.08,19.82-.08,29.73,0,30.65-.08,61.3.09,91.95.02,4.43-.93,6.49-5.78,5.97Zm10.37-734.12c-.04-48.78-.46-97.56-.68-146.34-.03-7.38,0-7.38,7.56-7.38q13.2,0,13.2,12.99v247.51h.02c0,83.88-.04,167.75.03,251.63.02,18.74.48,37.48.68,56.21.06,5.98-.19,6.28-6.16,6.15-4.66-.1-10.8,1.05-13.52-1.41-2.37-2.15-1.05-8.56-1.05-13.09-.04-135.42.03-270.85-.08-406.27Zm.09,525.33h-.04c0-21.79.1-43.58-.09-65.37-.04-4.05,1.12-5.43,5.16-5.09,3.93.33,7.92.19,11.88.04,2.8-.11,3.89,1.12,3.81,3.76-.04,1.37.02,2.74.02,4.11,0,41.9,0,83.8,0,125.71,0,6.67,0,6.69-6.6,7.39-2.72.29-5.45.37-8.16.69-4.5.53-6.11-1.16-6.07-5.88.22-21.79.1-43.58.1-65.37Zm15.22,208.76c-3.33-.31-6.73-.31-10.05,0-3.99.37-5.3-1.01-5.25-5.09.21-15.86.08-31.72.08-47.58,0-4.73,0-9.45,0-14.18,0-20.13.09-40.26-.07-60.39-.03-4.04.97-5.94,5.37-5.52,3.47.34,7.03.28,10.51,0,3.89-.32,5,1.3,4.98,4.99-.09,15.1.06,30.19.07,45.29.02,25.62-.09,51.24.1,76.85.03,4.44-1.35,6.04-5.73,5.62Zm9.63-881.66q.04-6.13,6.06-6.15c3.97,0,7.94.2,11.89-.06,3.6-.23,4.74,1.05,4.72,4.68-.14,20.59-.06,41.18-.05,61.76,0,35.69,0,71.37,0,107.06,0,53.83-.09,107.67.02,161.5.16,77.3.47,154.6.7,231.9.02,7.69,0,7.69-7.87,7.7-3.36,0-6.72-.14-10.06.03-3.55.18-4.76-1.24-4.73-4.82.14-18.15.05-36.3.05-54.44,0-90.44.09-180.87-.03-271.31-.11-77.91-.46-155.82-.7-233.73,0-1.37,0-2.75,0-4.12Zm23.35,584.21q0,12.75-12.65,12.75-9.95,0-9.95-9.74c0-.76,0-1.52,0-2.29q0-11.69,11.76-11.68,10.85,0,10.85,10.96Zm-22.6,88.56c0-21.81.08-43.62-.08-65.43-.03-3.78,1.06-5.15,4.89-4.89,4.56.3,9.15.21,13.72.02,3.01-.12,4.09,1.12,4.08,3.99-.03,6.25.12,12.51.12,18.76.01,37.37.01,74.73,0,112.1,0,6.06-.02,6.07-5.94,6.08-3.81,0-7.65-.25-11.43.07-4.11.34-5.49-.95-5.45-5.27.21-21.81.1-43.62.1-65.43Zm22.73,103.04c0,33.23,0,66.47,0,99.7,0,6.06-.02,6.07-6.02,6.08-3.51,0-7.01,0-10.52,0-6.11-.01-6.13-.02-6.14-5.97-.01-20.28,0-40.55,0-60.83h-.04c0-20.28.11-40.55-.09-60.83-.04-4.08,1.17-5.37,5.18-5.08,4.55.33,9.15.21,13.71.03,3.03-.12,4,1.13,3.96,4.02-.11,7.62-.03,15.24-.03,22.87Zm4.73-215.73c0-82.83,0-165.67,0-248.5h-.02c0-82.53.05-165.06-.03-247.58-.02-21.34-.47-42.67-.68-64.01-.06-6.12.03-6.13,6.06-6.14,3.05,0,6.13.26,9.15-.06,4.35-.47,5.71.99,5.68,5.5-.21,27.15-.1,54.31-.1,81.46,0,16.32-.03,32.65,0,48.97.23,96.54.5,193.08.71,289.62.1,47.59.1,95.19.14,142.78,0,6.14-.09,6.22-6.02,6.26-3.2.02-6.42-.16-9.61.04-3.83.25-5.87-.97-5.29-5.15.14-1.05.02-2.13.02-3.2Zm15.73,321.6c-4.09-.37-8.25.15-12.33-.25-1.2-.12-2.45-1.89-3.23-3.17-.48-.78-.12-2.08-.12-3.15,0-39.96,0-79.92,0-119.88,0-6.24.02-6.24,6.23-6.25,3.36,0,6.73.22,10.06-.06,3.62-.3,4.7,1.03,4.68,4.63-.15,20.44-.07,40.88-.07,61.31,0,20.44-.09,40.88.08,61.31.03,4.02-.88,5.9-5.3,5.51Zm.18-138.2c-4.09-.34-8.23-.17-12.34-.05-2.56.07-3.58-.98-3.52-3.5.08-3.66,0-7.32,0-10.97-.02-40.24.05-80.47-.15-120.71-.02-4.61,1.15-6.33,5.84-5.81,3.46.39,7.02.29,10.5.02,3.64-.29,4.76,1.1,4.73,4.67-.14,16.31-.06,32.62-.06,48.92,0,5.79,0,11.58,0,17.38h.04c0,21.64-.1,43.29.09,64.93.03,4.02-1.06,5.46-5.13,5.12Zm9.78-40.88c-.02-31.42.08-62.84-.1-94.26-.03-4.54,1.1-6.39,5.85-5.9,3.92.4,7.94.34,11.88.01,4-.33,5.22.99,5.18,5.07-.19,21.81-.09,43.62-.09,65.43,0,21.81-.1,43.62.09,65.43.04,4.06-1.13,5.41-5.16,5.1-4.24-.33-8.55-.3-12.8,0-3.7.26-4.79-1.26-4.77-4.73.07-12.05-.08-24.1-.08-36.15Zm17.69,179.08c-4.55-.33-9.14-.18-13.71-.05-2.78.08-3.89-1.15-3.84-3.79.03-1.83-.02-3.66-.02-5.48,0-39,0-78,0-117.01,0-6.37.03-6.37,6.2-6.38,4.11,0,8.24.23,12.34-.06,3.82-.28,4.11,1.71,4.1,4.71-.08,20.57-.04,41.14-.04,61.7h.02c0,20.42-.11,40.83.09,61.25.04,4.05-1.11,5.4-5.14,5.11Zm17.43-887.82c3.05-.03,6.1.09,9.15-.01,2.37-.08,3.38.93,3.18,3.26-.04.45,0,.91,0,1.37.24,35.83.67,71.65.7,107.48.12,151.63.12,303.26.16,454.88q0,7.55-7.49,7.56-13.24.01-13.24-13.31v-274.58h-.17c0-93.05,0-186.1.01-279.15,0-8.37-.82-7.42,7.7-7.5Zm8.16,887.81c-3.48-.31-7.02-.29-10.5,0-3.75.31-4.53-1.3-4.54-4.75-.14-40.04-.42-80.09-.66-120.13,0-1.07.08-2.14,0-3.2-.29-3.52,1.14-4.95,4.78-4.67,3.79.28,7.63.28,11.42,0,3.65-.28,4.68,1.07,4.65,4.65-.14,20.56-.07,41.13-.07,61.7,0,20.41-.1,40.83.08,61.24.04,3.99-1.07,5.54-5.15,5.18Zm0-138.19c-3.93-.34-7.92-.19-11.88-.04-2.8.11-3.9-1.11-3.81-3.76.03-1.07-.02-2.13-.02-3.2,0-42.36,0-84.72,0-127.08q0-6.32,6.13-6.93,14.59-1.45,14.6,12.94c0,19.35,0,38.7,0,58.05h.04c0,21.64-.1,43.27.09,64.91.04,4.04-1.1,5.44-5.15,5.1Zm9.79-183.46c0-93.04,0-186.09,0-279.13h-.06c0-93.2,0-186.39.02-279.59,0-8.37-1.1-7.36,7.65-7.45,3.66-.04,7.33.1,10.98-.03,2.7-.1,4,.98,3.94,3.69-.03,1.37.03,2.75.03,4.12.06,186.39.12,372.78.17,559.17q0,7.58-7.83,7.58c-3.36,0-6.72-.12-10.07.02-3.43.15-5.24-1.05-4.86-4.74.13-1.21.02-2.44.02-3.66Zm11.97,13.23q10.76,0,10.76,10.8v1.37q0,11.52-11.41,11.52t-11.32-11.72q0-11.98,11.97-11.98Zm-11.97,35.2c0-6.63.01-6.64,6.53-6.65,4.11-.01,8.23.04,12.34.01,2.56-.02,3.89.89,3.89,3.75-.07,45.4-.08,90.8-.12,136.2,0,.29-.16.57-.47,1.63-6.46,0-12.83.12-19.18-.13-.96-.04-2.17-1.63-2.69-2.76-.47-1.02-.16-2.39-.17-3.61-.05-42.81-.09-85.62-.13-128.43Zm17.29,273.23c-4.39-.38-8.84-.18-13.25-.06-2.74.08-3.96-1.07-3.89-3.74,0-.3-.02-.61-.02-.91,0-41.15.02-82.3-.05-123.45,0-3.58,1.31-4.78,4.87-4.62,5.73.26,11.49.07,17.54.07.1,2.19.23,3.83.23,5.46.01,40.54-.06,81.08.1,121.62.02,4.33-1.05,6.02-5.55,5.63Zm10.12-881.41q0-6.42,6.49-6.43c3.51,0,7.02.1,10.52-.02,2.67-.09,4.03.88,3.88,3.68-.08,1.52,0,3.05,0,4.57.02,186.09.04,372.18.06,558.26,0,2.24,0,4.49,0,7.31-6.36,0-11.85.18-17.32-.14-1.19-.07-2.58-1.8-3.32-3.08-.53-.92-.16-2.38-.16-3.6-.06-186.85-.12-373.7-.17-560.55Zm.35,576.09c.04-1.06,1.53-2.92,2.41-2.96,5.87-.27,11.75-.14,18.15-.14,0,7.47.09,14.42-.12,21.36-.02.79-1.64,2.14-2.57,2.18-4.85.22-9.74.32-14.58-.03-1.21-.09-3.19-1.95-3.26-3.09-.33-5.76-.28-11.55-.04-17.31Zm-.17,31.96c0-6.51.03-6.63,6.73-6.49,4.51.09,10.45-1.02,13.07,1.36,2.28,2.07.96,8.28.96,12.66.04,40.37.02,80.74.02,121.11v6.19h-19.71c-.37-6.25-1.02-12.27-1.03-18.29-.09-38.85-.05-77.69-.04-116.54Zm14.88,273.27c-3.51,0-7.02-.13-10.52.03-2.8.13-3.73-.98-3.68-3.73.13-8.08.04-16.16.04-24.24,0-32.93,0-65.86,0-98.79v-5.6h19.83c.08,1.9.22,3.54.22,5.17.02,13.26-.07,26.53.03,39.79.19,26.96.48,53.93.7,80.89.05,6.47-.02,6.48-6.61,6.48Z"/>
  </g>
</svg>