<?xml version="1.0" encoding="UTF-8"?>
<svg id="_レイヤー_2" data-name="レイヤー 2" xmlns="http://www.w3.org/2000/svg" viewBox="0 0 292.58 498.05">
  <defs>
    <style>
      .cls-1 {
        fill: #fff;
      }
    </style>
  </defs>
  <g id="_レイヤー_1-2" data-name="レイヤー 1">
    <g>
      <path class="cls-1" d="m49.05,358.36c1.05-1.46,1.33-3.6,1.97-5.42-.48-.34-.97-.69-1.45-1.03-5.55,6.1-11.31,11.99-16.56,18.39-2.82,3.44-5.08,7.67-1.8,12.54.16.23.17.6.15.97,1.45-2.79,2.14-4.57,3.19-6.01,4.79-6.52,9.77-12.87,14.5-19.45Z"/>
      <polygon class="cls-1" points="141.25 373.91 141.25 373.91 141.25 373.91 141.25 373.91"/>
      <path class="cls-1" d="m127.74,405.32c2.76.77,5.37.82,6.82-2.85,2.64-6.69,5.41-13.32,8.24-19.91,1.31-3.05,1.99-5.86-1.56-8.64-8.72,9.95-16.6,18.94-24.46,27.91,3.66,1.18,7.28,2.48,10.96,3.5Z"/>
      <path class="cls-1" d="m169.1,310.8c-17.38-1.55-33.42-7.78-48.21-17.91-1.55-1.06-2.94-2.38-4.41-3.57.15-.39.3-.78.45-1.17,4.26,1.13,8.59,2.01,12.76,3.45,6.69,2.31,12.91.48,19.06-2.09,1.17-.49,1.99-1.98,3.49-3.55-11.36,2.04-21.06-.41-30.78-3.11-2.91-.81-5.97-1.25-8.98-1.33-11.95-.29-23.91-.18-35.86-.62-4.15-.15-4.41-1.35-2.95-5.73.54-1.64.78-3.48.82-5.23.18-9.23,9.01-16.05,16.73-12.75,5.77,2.47,11.55,2.99,17.68,1.02-4.36-.86-8.43-1.67-12.51-2.48l.04-1.72c1.31-.62,2.57-1.44,3.93-1.83,3.55-1.02,7.17-1.71,10.7-2.79,3.12-.95,6.67-1.52,9.07-3.6,2.3-1.98,3.93-1.95,6.15-.9,2.77,1.32,5.55,2.63,8.33,3.94-7.03-8.56-15.18-15.22-24.17-20.59-9.1-5.43-10.93-4.41-13.07,6.64-.08.44-.24.86-.31,1.31-1.82,12.17-9.31,13.07-17.99,9.16-3.89-1.75-5.67-5.35-4.73-9.82.91-4.34,2.61-8.47,3.81-12.75,2.47-8.82,6.98-14.06,16.14-11.99,1.69.38,3.53-.06,5.29-.1,10.34-.26,20.68-.81,31.02-.69,12.6.14,24.04,4.37,33.98,13.17,5.34,4.72,6.03,6.69,3.68,13.89-1.56,4.79-3.48,9.43-5.18,14.17-.55,1.53-.92,3.13-1.38,4.7,1.82-1.2,2.8-2.77,3.76-4.35,5.46-9.06,8.81-20.28,19.99-23.52.65-.19,1.15-2.02,1.3-3.15.27-2.16.23-4.37.31-6.39-2.77.27-6.55.93-10.33.9-2.2-.02-5.68-.42-6.36-1.89-2.57-5.61-7.16-5.12-11.45-5.96-3.05-.59-6.07-1.4-10.17-2.36,2.12-2.48,3.17-3.78,4.3-5.01,8.89-9.66,15.7-20.25,14.1-35.13-.43-3.97-.32-8.19.38-12.11,1.53-8.49,3.53-16.89,5.47-25.28,2.39-10.35,1.81-20.23-3.56-29.38-.73-1.25-2-2.86-3.13-2.97-9.93-.97-19.89-1.64-29.85-2.39,6.56,3.43,13.13,6.16,19.75,8.72,2.71,1.05,4.16,2.68,4.51,6.04,2.04,19.63,2.07,39.24-.97,58.72-.93,5.96-2.92,11.81-5.07,17.41-2.43,6.31-8.03,5.19-12.82,5.21-3.74.02-3.99-3.96-5.13-6.63-3.74-8.74-1.88-18.32-3.1-27.46-.14-1.08.95-2.4,1.55-3.56,1.56-3,3.17-5.96,4.21-7.92-3.25-1.6-6.55-2.35-8.68-4.5-2.24-2.27-3.37-5.89-4.84-8.66-.8,4.26-.98,8.87-2.59,12.77-1.76,4.26-1.21,7.28,1.27,10.66,1.77,2.41,3.46,5.07,4.48,7.92,1.24,3.49-.09,5.19-3.45,5.06-2.16-.08-4.35-.38-6.47-.89-19.91-4.81-39.81-9.67-59.71-14.55-3.31-.81-6.59-1.78-9.89-2.68.06-.27.12-.54.18-.81,3.02.38,6.04.77,8.85,1.13-4.93-3.47-9.88-7.13-15-10.45-1.41-.92-3.37-1.22-5.05-1.16-8.31.32-12.7-3.88-13-12.97-.19-5.73.4-11.49,5.56-14.45,5.08-2.91,9.56.34,12.82,4.08,5.62,6.45,10.63,13.56,15.68,20.59,2.39,3.32,4.27,7.08,6.38,10.65.17-1.69-.34-3.04-.7-4.43-1.2-4.6-2.75-9.15-3.32-13.84-.24-2,1.13-5.1,2.66-6.22,1.17-.86,3.76.52,5.69,1.03.59.16,1.08.77,1.77,1.29,1.54-2.99,2.12-5.42.94-8.91-1.16-3.43-4.99-6.51-2.28-11.09,3.08-5.21,1.72-9.93-1.58-14.41q-6.06-8.21-12.84-.84c-8.21,8.9-7.82,11.11,2.71,16.44,2.57,1.3,5.34,2.58,7.32,4.67.96,1.01.53,3.9.23,5.85-.07.47-2.43,1.19-3.23.73-10.58-6.03-21.33-11.19-26.23-25.26-3.97-11.38-6.95-22.41-4.69-34.44,1.5-8.01,3.32-16.01,5.77-23.71,1.33-4.2,4.69-6.93,9.37-6.3,2.49.33,3.61,1.48,3.24,4.42-.41,3.29-.5,6.63-.76,10.41C73.76,21.27,102.69,11.36,131.04,0,95.96,2.36,64.6,18.4,31.57,33.28c1.78-8.16,3.3-15.18,4.83-22.19-.29-.13-.57-.27-.86-.4-.6,1.45-1.4,2.84-1.77,4.36-1.95,7.94-3.97,15.86-5.61,23.88-1.82,8.9-2.46,18.21-5.17,26.74-1.67,5.29-1.88,9.84-.33,14.64,3.08,9.5,6.51,18.86,10,28.9-4.48,3.27-9.73-2.47-15.65-.43,2.79,11.01,5.45,21.81,8.35,32.54.41,1.53,1.87,2.89,3.11,3.94,3.72,3.15,7.57,6.11,11.36,9.14-.15.37-.31.75-.46,1.12-14.27-.89-29.08.14-39.37-14.96.48,11.71,5.35,18.39,15.08,22.08,8.4,3.18,16.41,6.87,25.57,6.28,10.86-.69,21.75-1.08,32.63-1.12,4.24-.02,8.67.64,12.67,2.12,7.43,2.74,14.64,6.24,21.9,9.53,6.09,2.76,12.48,4.95,17.87,10.22-17.15,8.58-35.42,9.66-53.08,13.45.06.36.11.71.17,1.07,4.17.84,8.34,1.68,13.02,2.63-1.55,1.76-2.6,2.72-3.39,3.9-3.29,4.91-7.56,9.44-9.48,14.95-2.85,8.2-5.55,16.03-12.92,20.83,3.3,1.34,6.28,2.39,9.13,3.75,3.28,1.56,4.2,4.51,2.2,7.66-2,3.13-4.58,5.83-7.04,8.59-1.61,1.81-3.62,3.19-5.14,5.07-3.58,4.43-6.91,9.1-10.47,13.55-1.54,1.93-3.41,3.55-5.13,5.31,1.87-.08,3.3-.81,4.7-1.59,7.13-3.99,14.69-5.86,22.53-3.92,10.55,2.6,21.02,5.63,31.44,8.82,15.04,4.61,30.19,8.92,44.28,16.68,2.02,1.11,4.41,1.73,6.68,1.91,7.68.62,12.82,4.76,16.18,12.37,1.46,3.32,1.51,5.78-.79,8.49-6.7-3.27-13.2-6.45-20.21-9.88.48,3.18.86,5.62,1.41,9.26-4.07.08-7.82.69-11.42.11-6.98-1.12-13.89-2.82-20.81-4.43-4.57-1.07-8.45-.13-12.12,3.27-4.89,4.53-9.94,8.89-15.2,12.87-11.32,8.56-23.93,12.82-37.7,12.08-4.15-.22-8.26-1.52-13.14-2.48-.02.18-.03.36-.05.53-.59,6.47.73,8.74,6.71,8.23,7.12-.61,14.34-1.79,21.19-3.97,21.85-6.95,43.74-13.47,66.55-15.07,4.91-.35,9.86-.05,15.7-.05-.07.08-.14.16-.21.24,1.26-1.02,2.39-1.54,2.98-2.47,2.47-3.88,4.96-3.62,8.5-1.34,5.85,3.77,11.95,7.22,18.24,9.97,3.03,1.33,5.1,3.07,6.72,5.95,1.9,3.39,3.87,6.73,5.81,10.09-4.7-16.57-10.11-32.71-15.05-49.02-1.35-4.44-3.39-5.87-7.42-6.23Z"/>
      <path class="cls-1" d="m31.27,384s.05.01.08.02c0-.06,0-.13.01-.19-.03.06-.06.11-.09.18Z"/>
      <path class="cls-1" d="m229.86,206.03s.03.04.03.04c.15-.08.31-.15.46-.23-.17.05-.34.11-.51.15,0,0,.01.02.03.04Z"/>
      <path class="cls-1" d="m292.07,155.19c-1.39-5.78-2-11.78-3.31-17.59-.48-2.13-1.61-4.44-3.09-5.88-8.07-7.83-16.44-15.27-24.5-23.11-7.92-7.7-15.58-15.71-23.4-23.63,3.38-5.9,6.62-11.56,10.35-18.07-3.9,0-6.98-.39-9.96.08-7.93,1.24-15.5.35-22.52-4.01-1.5-.93-2.93-2.68-3.6-4.43-2.33-6.06-4.17-12.34-6.49-18.41-.73-1.92-2.39-3.4-3.61-5.09-1.13-1.57-2.92-3.03-3.21-4.78-.69-4.23-.68-8.6-.97-13.12-7.9,1.51-15.64,2.99-24.29,4.65,4.87,1.37,8.86,2.48,12.9,3.62-.25,3.44-.46,6.39-.67,9.37-11.31,1.84-21.28,6.26-29.84,14.51,10.49-7.21,22.11-6.42,33.63-6.34,6.82.04,13,1.09,15.12,9.92.44,1.82,1.46,3.47,2.22,5.2l.98,1.35c-3.9,3.74-7.73,7.58-11.74,11.17-1.25,1.12-2.95,1.97-4.54,2.25-9.12,1.59-18.37,2.47-27.39,4.55-15.42,3.56-29.3,10.08-37.71,26.29-1.43,2.75-4.48,4.82-7.17,6.37-7.75,4.46-9.53,7.74-8.85,17.47.47,6.86.75,13.73,1.09,20.6.06,1.22,0,2.45,0,3.68,3.47-8.42,6.06-16.89,8.79-25.31,1.63-5.05,2.62-10.71,5.39-14.88,5.1-7.67,13.1-11.49,20.84-16.36-.41,4.89-1.62,8.34-4.8,11.12-2.89,2.53-6.6,5.12-5.98,10.04,1.08,8.48,5.18,15.67,8.54,23.18.72-5.96,1.29-11.74,1.31-17.52.06-22.64,14.99-33.36,29.52-43.16.66-.44,1.58-.41,2.38-.58,12.25-2.63,24.66-4.6,36.7-8.12,7.93-2.31,12.93,1.04,16.72,5.25-.41,3.38-1.4,5.76-.79,7.41,3.54,9.5,9.87,16.74,17.06,24.81-.88-3.63-1.45-5.99-2.36-9.71,2.37,1.6,3.84,2.28,4.97,3.4,5.46,5.4,10.65,11.16,16.28,16.35,9.69,8.93,14.42,20.74,17.14,33.88,1.23,5.93.21,8.33-5.05,10.24-6.32,2.3-12.8,4.07-19.06,6.53-4.83,1.89-9.55,4.24-14.08,6.88-2.3,1.34-4.33,3.63-3.51,7.14,14.1-4.65,26.39-14.59,42.37-15.96-6.55,8.81-12.23,17.2-21.77,20.75-.89.33-1.84.57-2.78.63-14.94.98-29.88,1.87-44.82,2.95-2.53.18-3.51-.87-4.33-3.32-3.55-10.69-7.28-21.3-10.94-31.94-.51-1.49-.98-3-1.5-4.6,4.1-2.24,7.82-4.28,11.53-6.31-.07-.19-.13-.39-.2-.58-5.48.79-10.95,1.57-16.13,2.32,0,5.37.56,10.36-.18,15.11-.55,3.55.34,5.16,2.8,6.88,6.38,4.47,6.39,4.58,4.38,12.97-.74,3.1-.67,5.43,2.52,6.87,1.43.64,2.96,1.99,3.65,3.47,3.78,8.09,9.42,8.23,16.06,5.1,1.36-.64,2.88-.88,4.31-1.36,6.94-2.33,13.52.42,20.33,1.58-1.33,1.3-2.73,2.07-4.15,2.78-4.1,2.05-8.22,4.09-12.33,6.13,1.38-.41,2.76-.9,4.17-1.14,4.54-.77,9.14-2.24,13.63-1.9,6.47.48,12.87,2.26,19.29,3.56,8.79,1.79,17.86-7.2,17.18-17.26-2.6,1.21-5.16,2.41-8.91,4.16,5.23-9.46,9.6-17.84,14.43-25.89,2.36-3.94,3.04-7.61,1.95-12.18Z"/>
      <path class="cls-1" d="m173.32,392.59c-10.27,3.54-19.96,9.25-29.71,14.44-4.46,2.37-6.88,6.81-7.83,12.43-2.12,12.51-4.71,24.91-6.85,37.41-.28,1.65.5,4.13,1.59,5.35,4.85,5.46,9.81,10.84,15.09,15.77,3.27,3.06,7.19,5.27,10.83,7.85.35-.5.7-1,1.05-1.51-3.76-4.66-7.36-9.49-11.34-13.91-3.22-3.57-4.74-7.73-4.45-12.52.83-13.72,1.84-27.42,2.9-41.12.29-3.71,2.37-5.96,5.68-6.71,3.46-.79,6.91-1.61,10.4-2.16,1.11-.17,2.6.1,3.44.83,9.04,7.83,18.81,14.73,24.02,26.95,2.99,7,7.06,13.49,11.07,19.89,3.31,5.28,7.37,5.78,11.4,2.05-12.68-19.8-29.65-35.29-44.53-53.41,4.65-1.3,8.96-2.66,13.32-3.68,18.4-4.3,36.49-9.37,51.82-22.36,2.56-2.17,5.66-3.55,8.46-5.39.78-.51,1.44-1.25,2.13-1.92-3.85,1.52-7.64,3.27-11.57,4.46-18.98,5.76-38.16,10.76-56.93,17.24Z"/>
      <path class="cls-1" d="m241.82,370.89c.1-.04.19-.08.29-.12,0,0-.07-.09-.07-.09-.07.07-.14.14-.22.21Z"/>
      <path class="cls-1" d="m229.64,206.12c.08-.02.16-.04.24-.06,0,0-.01-.02-.03-.03-.01-.02-.03-.04-.03-.04-.07.04-.12.09-.19.13Z"/>
      <path class="cls-1" d="m201.14,217.02c-8.39,3.83-16.88,3.87-25.6,2.47-4.03-.65-7.26-2.31-8.68-6.93-1.09-3.54-3.63-5.57-6.84-5.33-9.23.71-18.43,1.85-27.65,2.82-.02.58-.03,1.16-.05,1.75,12.76,4.35,25.52,8.69,39.3,13.38-4.57,1.53-7.96,2.66-11.36,3.79-.01.4-.02.79-.04,1.19,10.68,3.26,21.23,7.17,32.06,9.59,10.87,2.43,21.98,3.67,33.04,4.81,4.56.47,9.36-.6,12.79-4.59,1.19-1.39,1.63-3.56,2.42-5.37-1.65-.77-3.3-2.17-4.96-2.17-3.51-.01-7.01.75-10.52,1.11-6.09.62-11.45,4.55-18.12,3.26-11.74-2.28-23.66-3.35-35.51-4.95-1-.14-1.97-.5-2.96-.76,5.06-2.15,10.17-3.85,15.35-4.17,8.51-.53,17.07-.27,25.61-.14,3.35.05,6.72-.2,7.81-4.09,2.11-7.53,6.46-12.69,12.4-16.53-1.35.33-2.73.56-4.02,1.06-8.18,3.21-16.46,6.17-24.48,9.83Z"/>
      <path class="cls-1" d="m229.86,206.03s-.03-.04-.03-.04c0,0,.01.02.03.04Z"/>
      <path class="cls-1" d="m120.76,452.12c.25-.34.49-.68.74-1.03-9.15-8.33-18.31-16.65-27.53-25.04,7.01-8.11,13.87-16.03,20.71-23.94-.86.24-1.99.3-2.89.84-8.67,5.27-17.33,10.55-25.91,15.99-3.06,1.94-3.38,4.7-1.26,7.93,1.93,2.93,3.64,6.03,5.44,9.06-.26.36-.53.73-.79,1.09-3.02-.57-6.03-1.29-9.07-1.67-2.57-.32-3.34-1.55-3.19-4.41.18-3.4-.27-6.85-.45-10.28-.61-.19-1.23-.38-1.84-.57-1.54,2.44-3.32,4.74-4.57,7.35-3.32,6.91-2.4,10.26,3.22,14.95,2.9,2.41,5.4,5.41,8.25,7.91,1.03.9,2.67,1.81,3.83,1.56,11.8-2.51,23.55-1.11,35.3.26Z"/>
      <path class="cls-1" d="m136.6,246.61c.1-3.07-.56-6.16-.92-9.64,6.88-2.31,14.01-4.71,21.14-7.11-8.8-2.54-17.43-3.8-26.89-1.45,1.93,3.39,3.34,5.87,4.5,7.93-7.51,4.57-14.88,8.69-21.88,13.48-3.39,2.32-6.39,5.6-9.01,8.97-2.66,3.44-1.75,6.84,1.98,8.73,1.8.91,3.89,1.41,5.87,1.49,4.73.21,9.48.07,14.22.07.04-.31.08-.63.12-.94-1.21-.65-2.42-1.29-3.63-1.96-2.03-1.12-5.06-2.01-3.97-5.16.81-2.33,2.94-4.51,4.98-5.79,1.6-.99,3.97-.52,6-.64,5.01-.31,7.31-2.52,7.48-7.98Z"/>
      <path class="cls-1" d="m271.7,296.1c-11.08,1.41-22.13,3.09-33.2,4.65,7.89,2.6,12.89,8.72,17.54,15.53,2.01,2.94,4.73,5.28,7.13,7.89.29-.27.59-.53.88-.8-.89-2.92-1.79-5.83-2.63-8.56,6.39-6.88,14.78-5.98,22.49-8.13-.03-.56-.02-.72-.05-.86-2.43-10.8-2.44-10.94-12.17-9.7Z"/>
      <path class="cls-1" d="m116.72,456.68c-.9.66-1.29,2.44-1.55,3.79-.57,2.92-.26,6.28-1.49,8.75-2,4.02-5.01,7.42-7.47,11.18-3.53,5.39-6.96,10.86-10.43,16.3.41.45.83.91,1.24,1.36,10.36-12.12,24.33-17.34,37.68-24.43-4.09-6.87-7.95-13.34-11.85-19.9-2.24,1.02-4.38,1.66-6.13,2.95Z"/>
      <path class="cls-1" d="m266.97,351.01c1-4.71,5.54-8.24,1.95-12.57-3.13,3.93-6.17,7.91-9.36,11.74-5.72,6.85-11.53,13.62-17.3,20.42,1.29-.5,2.59-.99,3.87-1.51,7.6-3.1,15.03-6.97,22.85-9.12,8.89-2.44,12.08.76,13.21,10.85.01.11.29.18.26.16,5.34-16.27-5.57-17.94-15.47-19.97Z"/>
      <path class="cls-1" d="m242.1,370.77c.05-.06.1-.12.15-.18-.07.03-.15.06-.22.08,0,0,.07.09.07.09Z"/>
      <path class="cls-1" d="m180.91,277.96c-7.55-1.17-15.49.66-23.26,1.21,11.73,7.51,21.57,10.13,36.47,10.72-3.02-6.09-7.8-11.09-13.21-11.93Z"/>
      <path class="cls-1" d="m234.61,301.9c.04-.55.09-1.11.13-1.66-12.97-3.28-25.93-6.57-39.31-9.96,3.89,9.46,6.54,12.33,15.02,12.78,8.02.42,16.11-.71,24.17-1.16Z"/>
      <path class="cls-1" d="m8.21,233.93c-.15.08-.29.16-.44.24,5,9.67,10.54,19.06,14.81,29.1,3.3,7.76,8.73,9.61,14.49,10.27-9.42-12.93-19.14-26.27-28.86-39.62Z"/>
      <path class="cls-1" d="m132.07,271.61c7.26,2.64,13.1,9.59,21.65,8.3.09-.38.18-.76.27-1.14-7.17-2.8-14.35-5.59-21.52-8.39-.13.41-.26.82-.39,1.23Z"/>
      <path class="cls-1" d="m169.35,20.89c-5.05-1.28-10.1-2.55-15.15-3.83,4.44,4.15,9.45,5.58,15.15,3.83Z"/>
      <path class="cls-1" d="m266.45,325.36c-.49.24-.97.49-1.46.73,1.09,3.2,2.18,6.41,3.27,9.61.46-.19.92-.37,1.38-.56l-3.2-9.78Z"/>
    </g>
  </g>
</svg>